<?xml version="1.0" encoding="utf-8"?>
<!-- Generator: Adobe Illustrator 17.1.0, SVG Export Plug-In . SVG Version: 6.00 Build 0)  -->
<!DOCTYPE svg PUBLIC "-//W3C//DTD SVG 1.1//EN" "http://www.w3.org/Graphics/SVG/1.1/DTD/svg11.dtd">
<svg version="1.1" xmlns="http://www.w3.org/2000/svg" xmlns:xlink="http://www.w3.org/1999/xlink" x="0px" y="0px"
	 viewBox="0 0 1000 739.5" enable-background="new 0 0 1000 739.5" xml:space="preserve">
<g id="BG_Shape">
	<path fill="#CD2800" d="M515,24.7l21.8-11c12.8-6.4,28.3-4,38.5,6.1L592.7,37c7.5,7.4,18.1,10.9,28.6,9.3l24.1-3.7
		c14.2-2.2,28.2,5,34.8,17.7L691.4,82c4.9,9.4,13.9,15.9,24.3,17.7l24.1,4c14.2,2.3,25.3,13.4,27.6,27.6l4,24.1
		c1.7,10.4,8.3,19.4,17.7,24.3l21.7,11.2c12.8,6.6,19.9,20.6,17.7,34.8l-3.7,24.1c-1.6,10.5,1.8,21,9.3,28.6l17.2,17.4
		c10.1,10.2,12.5,25.7,6.1,38.5l-11,21.8c-4.7,9.5-4.7,20.6,0,30l11,21.8c6.4,12.8,4,28.3-6.1,38.5L834,463.7
		c-7.4,7.5-10.9,18.1-9.3,28.6l3.7,24.1c2.2,14.2-5,28.2-17.7,34.8L789,562.4c-9.4,4.9-15.9,13.9-17.7,24.3l-4,24.1
		c-2.3,14.2-13.4,25.3-27.6,27.6l-24.1,4c-10.4,1.7-19.4,8.3-24.3,17.7l-11.2,21.7c-6.6,12.8-20.6,19.9-34.8,17.7l-24.1-3.7
		c-10.5-1.6-21,1.8-28.6,9.3l-17.4,17.2c-10.2,10.1-25.7,12.5-38.5,6.1l-21.8-11c-9.5-4.7-20.6-4.7-30,0l-21.8,11
		c-12.8,6.4-28.3,4-38.5-6.1L407.3,705c-7.5-7.4-18.1-10.9-28.6-9.3l-24.1,3.7c-14.2,2.2-28.2-5-34.8-17.7L308.6,660
		c-4.9-9.4-13.9-15.9-24.3-17.7l-24.1-4c-14.2-2.3-25.3-13.4-27.6-27.6l-4-24.1c-1.7-10.4-8.3-19.4-17.7-24.3l-21.7-11.2
		c-12.8-6.6-19.9-20.6-17.7-34.8l3.7-24.1c1.6-10.5-1.8-21-9.3-28.6l-17.2-17.4c-10.1-10.2-12.5-25.7-6.1-38.5l11-21.8
		c4.7-9.5,4.7-20.6,0-30l-11-21.8c-6.4-12.8-4-28.3,6.1-38.5l17.2-17.4c7.4-7.5,10.9-18.1,9.3-28.6l-3.7-24.1
		c-2.2-14.2,5-28.2,17.7-34.8l21.7-11.2c9.4-4.9,15.9-13.9,17.7-24.3l4-24.1c2.3-14.2,13.4-25.3,27.6-27.6l24.1-4
		c10.4-1.7,19.4-8.3,24.3-17.7l11.2-21.7c6.6-12.8,20.6-19.9,34.8-17.7l24.1,3.7c10.5,1.6,21-1.8,28.6-9.3l17.4-17.2
		c10.2-10.1,25.7-12.5,38.5-6.1l21.8,11C494.4,29.5,505.6,29.5,515,24.7z"/>
	<circle fill="#FFFFFF" cx="500" cy="371" r="330.3"/>
	<circle fill="#CD4A29" cx="500" cy="371" r="304.5"/>
	<circle fill="#FFFFFF" cx="500" cy="371" r="173"/>
	<polygon fill="#FFD059" points="500,620.4 505.1,636 521.5,636 508.2,645.6 513.3,661.1 500,651.4 486.7,661.1 491.8,645.6 
		478.5,636 494.9,636 	"/>
	<polygon fill="#FFD059" points="564.3,620.4 565.4,632.4 577.3,635 566.2,639.8 567.4,651.8 559.3,642.7 548.3,647.5 554.4,637.1 
		546.3,628.2 558.1,630.8 	"/>
	<polygon fill="#FFD059" points="436.4,620.2 434.7,632.2 422.7,634.2 433.6,639.5 431.8,651.4 440.3,642.7 451.1,648.1 
		445.5,637.5 454,628.9 442,630.9 	"/>
	<polygon fill="#FFD059" points="613.1,613.7 614.9,621.8 623.1,622.6 616,626.7 617.7,634.8 611.6,629.3 604.5,633.5 607.8,625.9 
		601.7,620.5 609.8,621.3 	"/>
	<polygon fill="#FFD059" points="386.2,613.8 385,622 376.8,623.3 384.2,627 382.9,635.1 388.7,629.3 396.1,633 392.3,625.7 
		398.1,619.8 390,621.1 	"/>
	<g>
		<g>
			<path fill="#FFD059" d="M659.9,413.7c0,0-2.1-0.1-4.1-0.2c-2-0.1-4.1-0.2-4.1-0.2s-0.2,0.5-0.4,1.2c-0.3,0.7-0.7,1.6-1.1,2.6
				c-0.8,1.9-1.6,3.7-1.6,3.7s-0.5-2-0.9-3.9c-0.2-1-0.5-1.9-0.7-2.6c-0.2-0.7-0.3-1.2-0.3-1.2s-2-0.2-4.1-0.3
				c-2-0.2-4.1-0.4-4.1-0.4s1.8-0.9,3.4-1.9c1.7-1,3.4-2.1,3.4-2.1s-0.6-1.9-1.2-3.7c-0.7-1.8-1.4-3.6-1.4-3.6s1.7,1.1,3.4,2.3
				c1.7,1.2,3.4,2.4,3.4,2.4s1.6-1.2,3.3-2.3c1.6-1.2,3.3-2.4,3.3-2.4s-0.6,1.9-1.2,3.9c-0.3,1-0.6,1.9-0.9,2.7
				c-0.3,0.7-0.4,1.2-0.4,1.2s1.6,1.3,3.2,2.5C658.3,412.4,659.9,413.7,659.9,413.7z"/>
			<path fill="#FFD059" d="M644.2,451.6l-7.3-3.7c0,0-0.4,0.4-0.9,0.9c-0.5,0.5-1.3,1.2-2,1.9c-1.5,1.4-2.9,2.7-2.9,2.7
				s0.4-2,0.7-3.9c0.2-1,0.4-1.9,0.4-2.7c0.1-0.7,0.2-1.2,0.2-1.2l-7.3-3.7c0,0,2-0.2,3.9-0.5c2-0.3,4-0.6,4-0.6s0.1-0.5,0.1-1.2
				c0.1-0.7,0.1-1.7,0.2-2.7c0.1-1.9,0.3-3.8,0.3-3.8s1.1,1.7,2.2,3.4c1.1,1.7,2.1,3.5,2.1,3.5s2-0.4,4-0.8c2-0.5,4-0.9,4-0.9
				s-1.4,1.5-2.7,3.1c-0.7,0.8-1.4,1.5-1.9,2.1c-0.5,0.6-0.9,0.9-0.9,0.9s1,1.8,1.9,3.6C643.3,449.7,644.2,451.6,644.2,451.6z"/>
		</g>
		<g>
			<path fill="#FFD059" d="M621.7,483.1c0,0-1.8-1-3.6-2.1c-1.8-1.1-3.5-2.1-3.5-2.1s-1.5,1.4-3.1,2.6c-1.6,1.3-3.1,2.5-3.1,2.5
				s0.5-2,1-3.9c0.2-1,0.5-1.9,0.7-2.6c0.2-0.7,0.3-1.2,0.3-1.2s-1.7-1.1-3.5-2.2c-1.7-1.1-3.5-2.2-3.5-2.2s0.5,0,1.2,0
				c0.7,0,1.7-0.1,2.7-0.1c2-0.1,3.9-0.2,3.9-0.2s0.1-0.5,0.2-1.2c0.1-0.7,0.3-1.7,0.4-2.6c0.3-1.9,0.5-3.8,0.5-3.8s1,1.8,1.9,3.6
				c0.9,1.8,1.9,3.6,1.9,3.6s2-0.3,4-0.5c2-0.3,4.1-0.6,4.1-0.6s-1.5,1.4-2.9,2.9c-0.7,0.7-1.5,1.4-2,2c-0.3,0.3-0.5,0.5-0.7,0.6
				c-0.2,0.1-0.3,0.2-0.3,0.2s0.8,1.9,1.7,3.7C620.9,481.2,621.7,483.1,621.7,483.1z"/>
			<path fill="#FFD059" d="M590.2,509.3l-4.8-6.7c0,0-1.9,0.7-3.9,1.1c-1.9,0.5-3.9,1-3.9,1s1.2-1.6,2.4-3.1
				c1.2-1.5,2.3-3.2,2.3-3.2l-4.7-6.7c0,0,1.8,0.7,3.7,1.4c1.9,0.7,3.8,1.3,3.8,1.3s0.3-0.4,0.7-1c0.4-0.6,0.9-1.4,1.4-2.3
				c1-1.6,2-3.3,2-3.3s0.2,2,0.4,4c0.1,2,0.3,4,0.3,4s2,0.6,3.9,1.1c2,0.5,4,1,4,1s-1.9,0.7-3.8,1.5c-1,0.4-1.9,0.7-2.6,1
				c-0.7,0.3-1.2,0.4-1.2,0.4s0,2,0.1,4.1C590.3,507.3,590.2,509.3,590.2,509.3z"/>
		</g>
		<g>
			<path fill="#FFD059" d="M555.7,526.9c0,0-1.1-1.7-2.2-3.5c-1.1-1.7-2.1-3.5-2.1-3.5s-0.5,0.1-1.2,0.3c-0.7,0.2-1.7,0.4-2.7,0.6
				c-2,0.4-4,0.8-4,0.8s1.4-1.5,2.7-3c0.7-0.7,1.3-1.5,1.8-2c0.5-0.5,0.8-0.9,0.8-0.9s-1-1.8-2.1-3.5c-1-1.8-2-3.6-2-3.6
				s0.4,0.2,1.1,0.6c0.7,0.3,1.5,0.7,2.4,1.1c1.8,0.8,3.6,1.6,3.6,1.6s0.3-0.4,0.7-1c0.4-0.6,1-1.3,1.6-2.1c1.1-1.6,2.2-3.2,2.2-3.2
				s0,2,0,4.1c0,2,0,4.1,0,4.1s1.9,0.7,3.8,1.4c1.9,0.7,3.9,1.3,3.9,1.3s-2,0.6-3.9,1.2c-1,0.3-1.9,0.6-2.7,0.8
				c-0.7,0.2-1.2,0.3-1.2,0.3s-0.1,2-0.2,4.1C555.8,524.8,555.7,526.9,555.7,526.9z"/>
			<path fill="#FFD059" d="M515.6,535.4l-1.1-8.1c0,0-0.5-0.1-1.2-0.2c-0.7-0.1-1.7-0.3-2.7-0.5c-2-0.5-3.9-0.9-3.9-0.9
				s1.8-0.8,3.6-1.6c0.9-0.4,1.8-0.8,2.4-1.2c0.7-0.3,1.1-0.6,1.1-0.6l-1.1-8.1c0,0,1.3,1.5,2.6,3c1.4,1.5,2.7,3,2.7,3
				s0.4-0.2,1.1-0.6c0.6-0.4,1.5-0.9,2.3-1.4c1.6-1,3.3-2,3.3-2s-0.8,1.8-1.5,3.7c-0.8,1.9-1.6,3.7-1.6,3.7s1.5,1.4,2.9,2.8
				c1.5,1.4,3,2.8,3,2.8s-2-0.2-4.1-0.5c-1-0.1-2-0.3-2.8-0.3c-0.8-0.1-1.3-0.2-1.3-0.2s-0.9,1.8-1.9,3.6
				C516.6,533.6,515.6,535.4,515.6,535.4z"/>
		</g>
		<g>
			<path fill="#FFD059" d="M476.9,534.9c0,0-0.2-2.1-0.3-4.1c-0.1-2.1-0.3-4.1-0.3-4.1s-2-0.5-3.9-1c-1-0.3-1.9-0.6-2.7-0.8
				c-0.7-0.2-1.2-0.4-1.2-0.4s1.9-0.7,3.8-1.3c1.9-0.8,3.7-1.5,3.7-1.5s-0.1-2-0.2-4.1c-0.1-2-0.1-4.1-0.1-4.1s1.2,1.6,2.3,3.1
				c1.2,1.6,2.4,3.1,2.4,3.1s0.4-0.2,1.1-0.5c0.7-0.3,1.5-0.8,2.4-1.2c1.7-0.9,3.4-1.7,3.4-1.7s-0.9,1.8-1.9,3.6
				c-1,1.8-1.9,3.6-1.9,3.6s1.3,1.5,2.7,3c1.4,1.5,2.8,3,2.8,3s-0.5-0.1-1.3-0.2c-0.8-0.1-1.8-0.4-2.7-0.6c-2-0.4-4-0.8-4-0.8
				s-1.1,1.8-2.1,3.6C477.9,533.1,476.9,534.9,476.9,534.9z"/>
			<path fill="#FFD059" d="M437.4,523.9l2.8-7.7c0,0-1.6-1.3-3.1-2.5c-1.6-1.2-3-2.6-3-2.6s2,0.2,4,0.2c2,0.1,3.9,0.1,3.9,0.1
				l2.8-7.7c0,0,0.4,1.9,0.9,3.9c0.5,1.9,1.1,3.8,1.1,3.8s1.9-0.1,3.9-0.1c1,0,1.9-0.1,2.6-0.1c0.7-0.1,1.2-0.1,1.2-0.1
				s-1.5,1.3-3.1,2.6c-1.6,1.3-3.2,2.5-3.2,2.5s0.2,0.5,0.4,1.2c0.2,0.7,0.6,1.7,0.9,2.7c0.7,1.9,1.4,3.8,1.4,3.8s-0.4-0.3-1.1-0.7
				c-0.6-0.4-1.5-0.9-2.3-1.6c-1.7-1.2-3.3-2.4-3.3-2.4s-1.7,1.2-3.4,2.4c-0.9,0.6-1.7,1.2-2.3,1.6
				C437.9,523.6,437.4,523.9,437.4,523.9z"/>
		</g>
		<g>
			<path fill="#FFD059" d="M403.3,505.4c0,0,0.8-1.9,1.6-3.8c0.8-1.9,1.7-3.8,1.7-3.8s-1.5-1.4-3-2.8c-0.7-0.7-1.5-1.4-2-1.9
				c-0.5-0.5-0.9-0.9-0.9-0.9s0.5,0.1,1.2,0.2c0.7,0.1,1.7,0.3,2.7,0.4c2,0.2,4,0.4,4,0.4s0.9-1.9,1.8-3.7c0.9-1.8,1.8-3.7,1.8-3.7
				s0.3,1.9,0.6,3.9c0.3,2,0.7,3.9,0.7,3.9s2,0.1,3.9,0.2c1,0,1.9,0.1,2.6,0.1c0.7,0,1.2,0,1.2,0s-1.7,1.2-3.3,2.3
				c-1.7,1.1-3.4,2.3-3.4,2.3s0.1,0.5,0.3,1.2c0.2,0.7,0.4,1.8,0.7,2.7c0.6,1.9,1.1,3.9,1.1,3.9s-0.4-0.3-1-0.8
				c-0.6-0.5-1.4-1.1-2.2-1.7c-1.6-1.3-3.1-2.6-3.1-2.6s-1.8,1.1-3.5,2.2C405.1,504.3,403.3,505.4,403.3,505.4z"/>
			<path fill="#FFD059" d="M373.6,477.3l6.1-5.6c0,0-0.8-1.8-1.6-3.7c-0.8-1.8-1.5-3.7-1.5-3.7s1.6,1.1,3.4,2c1.7,1,3.4,1.9,3.4,1.9
				l6.1-5.5c0,0-0.5,1.9-1,3.9c-0.4,1.9-0.8,3.9-0.8,3.9s1.7,0.9,3.5,1.7c0.8,0.4,1.7,0.8,2.4,1.1c0.7,0.3,1.1,0.5,1.1,0.5
				s-2,0.4-4,0.9c-1,0.2-2,0.4-2.7,0.5c-0.7,0.1-1.2,0.2-1.2,0.2s-0.1,0.5-0.2,1.3c-0.1,0.8-0.3,1.8-0.4,2.8c-0.3,2-0.5,4-0.5,4
				s-0.3-0.4-0.6-1.1c-0.4-0.7-0.9-1.5-1.3-2.5c-0.9-1.8-1.8-3.7-1.8-3.7s-2,0.3-4.1,0.6c-1,0.1-2.1,0.3-2.8,0.3
				C374.1,477.2,373.6,477.3,373.6,477.3z"/>
		</g>
		<g>
			<path fill="#FFD059" d="M352,445.1c0,0,1.6-1.3,3.2-2.6c1.6-1.3,3.2-2.6,3.2-2.6s-0.7-1.9-1.4-3.8c-0.4-0.9-0.7-1.9-0.9-2.6
				c-0.2-0.7-0.4-1.2-0.4-1.2s0.4,0.3,1,0.7c0.6,0.4,1.4,1,2.2,1.6c1.7,1.1,3.3,2.2,3.3,2.2s1.6-1.2,3.3-2.5
				c1.6-1.2,3.3-2.4,3.3-2.4s-0.6,1.9-1.3,3.7c-0.3,0.9-0.6,1.9-0.8,2.6c-0.2,0.7-0.3,1.2-0.3,1.2s1.7,1,3.4,1.9
				c0.8,0.5,1.7,0.9,2.3,1.3c0.6,0.4,1.1,0.6,1.1,0.6s-0.5,0.1-1.3,0.2c-0.8,0.1-1.8,0.2-2.8,0.3c-2,0.2-4,0.4-4,0.4s-0.5,2-1,3.9
				c-0.4,2-0.8,4-0.8,4s-0.2-0.5-0.5-1.2c-0.3-0.7-0.8-1.6-1.2-2.5c-0.8-1.9-1.6-3.8-1.6-3.8s-2.1,0.1-4.1,0.3
				c-1,0.1-2.1,0.1-2.9,0.2C352.5,445,352,445.1,352,445.1z"/>
			<path fill="#FFD059" d="M338.6,406.4l8-2.1c0,0,0.2-2,0.3-4c0.1-2,0.4-4,0.4-4s1,1.7,2.1,3.4c1.1,1.7,2.1,3.3,2.1,3.3l8-2
				c0,0-1.4,1.5-2.7,3c-1.3,1.5-2.5,3-2.5,3s1.1,1.6,2.3,3.1c0.6,0.8,1.2,1.5,1.6,2.1c0.5,0.6,0.8,0.9,0.8,0.9s-2-0.5-3.9-1.1
				c-1.9-0.6-3.9-1.2-3.9-1.2s-0.3,0.4-0.8,1c-0.5,0.6-1.1,1.4-1.7,2.3c-1.2,1.7-2.3,3.3-2.3,3.3s0-0.5,0-1.3c0-0.8-0.1-1.8,0-2.8
				c0-2,0.1-4.1,0.1-4.1s-1.9-0.7-3.9-1.4c-1-0.4-2-0.7-2.7-1C339.1,406.5,338.6,406.4,338.6,406.4z"/>
		</g>
		<g>
			<path fill="#FFD059" d="M334.6,367.8c0,0,2-0.4,4-0.8c2-0.4,4-0.8,4-0.8s0.3-2,0.6-4c0.2-1,0.3-2,0.4-2.7
				c0.1-0.7,0.2-1.2,0.2-1.2s0.2,0.5,0.6,1.1c0.4,0.7,0.8,1.6,1.3,2.5c0.9,1.8,1.9,3.5,1.9,3.5s2-0.3,4.1-0.7c2-0.3,4.1-0.6,4.1-0.6
				s-1.4,1.3-2.9,2.7c-0.7,0.7-1.4,1.4-1.9,1.9c-0.5,0.5-0.9,0.9-0.9,0.9s1,1.7,2.1,3.3c1,1.6,2.1,3.2,2.1,3.2s-1.9-0.7-3.8-1.4
				c-1.9-0.7-3.8-1.5-3.8-1.5s-0.3,0.4-0.9,0.9c-0.5,0.6-1.2,1.3-1.8,2.1c-1.3,1.6-2.6,3.1-2.6,3.1s0.1-2,0.2-4.1c0.2-2,0.4-4,0.4-4
				s-1.9-0.8-3.8-1.7C336.4,368.6,334.6,367.8,334.6,367.8z"/>
			<path fill="#FFD059" d="M340.7,327.3l8,1.8c0,0,1-1.7,2.1-3.4c1.1-1.7,2.2-3.3,2.2-3.3s0.1,2,0.3,4c0.1,1,0.1,2,0.2,2.7
				c0.1,0.7,0.1,1.2,0.1,1.2l8,1.9c0,0-1.8,0.7-3.7,1.4c-1.9,0.8-3.7,1.5-3.7,1.5s0.2,1.9,0.6,3.8c0.3,1.9,0.7,3.8,0.7,3.8
				s-1.5-1.4-2.9-2.7c-1.5-1.4-2.9-2.8-2.9-2.8s-1.8,0.9-3.6,1.8c-1.8,0.9-3.7,1.9-3.7,1.9s0.9-1.8,1.9-3.7c0.5-0.9,0.9-1.8,1.3-2.5
				c0.4-0.7,0.6-1.1,0.6-1.1s-1.4-1.5-2.8-3C342.1,328.9,340.7,327.3,340.7,327.3z"/>
		</g>
		<g>
			<path fill="#FFD059" d="M355,291.3c0,0,2,0.6,3.9,1.2c2,0.6,3.9,1.2,3.9,1.2s1.1-1.7,2.4-3.3c1.2-1.6,2.4-3.2,2.4-3.2s0,2,0,4
				c0,1,0,2,0,2.7c0,0.7,0,1.2,0,1.2s1.9,0.6,3.9,1.3c1.9,0.7,3.9,1.3,3.9,1.3s-0.5,0.1-1.2,0.3c-0.7,0.2-1.6,0.5-2.6,0.8
				c-1.9,0.6-3.8,1.2-3.8,1.2s0,0.5,0.1,1.2c0,0.7,0.1,1.7,0.2,2.7c0.2,1.9,0.4,3.8,0.4,3.8s-1.4-1.5-2.7-3
				c-1.3-1.5-2.7-3.1-2.7-3.1s-1.9,0.7-3.7,1.5c-1.9,0.8-3.8,1.6-3.8,1.6s1.1-1.7,2.1-3.5c0.5-0.9,1.1-1.7,1.5-2.4
				c0.2-0.3,0.4-0.6,0.5-0.8c0.1-0.2,0.2-0.3,0.2-0.3s-1.3-1.6-2.5-3.2C356.3,292.9,355,291.3,355,291.3z"/>
			<path fill="#FFD059" d="M379.3,258.3l6.2,5.3c0,0,0.4-0.3,1.1-0.7c0.6-0.4,1.5-0.9,2.4-1.4c1.8-1,3.5-1.9,3.5-1.9
				s-0.8,1.8-1.6,3.6c-0.8,1.8-1.5,3.6-1.5,3.6l6.2,5.4c0,0-2-0.2-3.9-0.5c-2-0.2-4-0.4-4-0.4s-0.2,0.4-0.4,1.1
				c-0.2,0.7-0.5,1.6-0.8,2.5c-0.6,1.8-1.2,3.6-1.2,3.6s-0.7-1.9-1.3-3.8c-0.6-1.9-1.2-3.9-1.2-3.9s-2-0.1-4.1-0.2
				c-2.1,0-4.1-0.1-4.1-0.1s1.7-1.2,3.4-2.3c0.8-0.6,1.7-1.2,2.3-1.6c0.6-0.4,1.1-0.7,1.1-0.7s-0.5-2-1-4
				C379.8,260.3,379.3,258.3,379.3,258.3z"/>
		</g>
		<g>
			<path fill="#FFD059" d="M408.7,233c0,0,1.5,1.4,3,2.9c1.5,1.4,2.9,2.9,2.9,2.9s0.4-0.2,1.1-0.6c0.7-0.4,1.6-0.8,2.5-1.2
				c1.8-0.9,3.6-1.7,3.6-1.7s-1,1.8-1.9,3.6c-0.5,0.9-0.9,1.8-1.3,2.4c-0.3,0.6-0.5,1.1-0.5,1.1s1.4,1.5,2.8,2.9
				c1.4,1.5,2.8,3,2.8,3s-0.5-0.1-1.2-0.3c-0.7-0.2-1.7-0.3-2.6-0.5c-1.9-0.3-3.9-0.7-3.9-0.7s-0.2,0.4-0.5,1.1
				c-0.3,0.7-0.7,1.5-1,2.5c-0.7,1.8-1.4,3.6-1.4,3.6s-0.5-2-1-3.9c-0.5-2-0.9-4-0.9-4s-2-0.2-4-0.4c-2-0.2-4.1-0.4-4.1-0.4
				s1.8-1,3.5-2.1c0.9-0.5,1.7-1,2.4-1.4c0.7-0.4,1.1-0.6,1.1-0.6s-0.4-2-0.8-4C409,235.1,408.7,233,408.7,233z"/>
			<path fill="#FFD059" d="M445.5,215.1l3.1,7.6c0,0,2-0.2,4-0.2c2,0,4-0.1,4-0.1s-1.6,1.2-3.1,2.5c-1.6,1.2-3,2.5-3,2.5l3,7.6
				c0,0-1.6-1.1-3.3-2.2c-1.7-1.1-3.4-2.2-3.4-2.2s-0.4,0.3-0.9,0.8c-0.5,0.5-1.2,1.2-1.9,1.9c-1.4,1.3-2.7,2.7-2.7,2.7s0.3-2,0.6-4
				c0.3-2,0.7-4,0.7-4s-1.8-1-3.5-2c-1.8-1-3.6-2-3.6-2s2-0.3,4.1-0.5c1-0.1,2-0.2,2.8-0.3c0.8-0.1,1.3-0.1,1.3-0.1s0.5-2,0.9-4
				C445,217.1,445.5,215.1,445.5,215.1z"/>
		</g>
		<g>
			<path fill="#FFD059" d="M483.3,206.4c0,0,0.6,2,1.3,3.9c0.6,2,1.2,3.9,1.2,3.9s0.5,0,1.3,0c0.8,0,1.8,0,2.8,0.1
				c2,0.1,4,0.2,4,0.2s-1.7,1.1-3.3,2.2c-0.8,0.6-1.6,1.1-2.2,1.5c-0.6,0.5-1,0.8-1,0.8s0.6,2,1.1,3.9c0.5,2,1.1,3.9,1.1,3.9
				s-0.4-0.3-0.9-0.8c-0.6-0.5-1.3-1.1-2.1-1.7c-1.6-1.2-3.1-2.4-3.1-2.4s-0.4,0.3-1,0.7c-0.6,0.4-1.3,1-2.1,1.7
				c-1.5,1.3-2.9,2.5-2.9,2.5s0.5-2,0.9-3.9c0.5-2,1-4,1-4s-1.7-1.1-3.3-2.3c-1.7-1.1-3.4-2.2-3.4-2.2s2-0.1,4.1-0.2
				c1,0,2-0.1,2.8-0.1c0.8,0,1.3,0,1.3,0s0.6-2,1.2-3.9C482.6,208.4,483.3,206.4,483.3,206.4z"/>
			<path fill="#FFD059" d="M524.2,207.7l-0.8,8.2c0,0,1.8,0.8,3.7,1.7c0.9,0.4,1.8,0.9,2.5,1.2c0.7,0.3,1.1,0.6,1.1,0.6
				s-0.5,0.1-1.2,0.2c-0.7,0.1-1.7,0.3-2.7,0.5c-1.9,0.4-3.9,0.9-3.9,0.9l-0.9,8.2c0,0-0.9-1.8-1.8-3.5c-0.9-1.8-1.9-3.5-1.9-3.5
				s-1.9,0.5-3.7,1.1c-0.9,0.3-1.8,0.5-2.5,0.7c-0.7,0.2-1.1,0.4-1.1,0.4s0.3-0.4,0.7-1c0.4-0.6,1-1.4,1.6-2.2
				c1.2-1.6,2.5-3.2,2.5-3.2s-1.1-1.7-2.2-3.5c-0.6-0.9-1.1-1.7-1.6-2.4c-0.4-0.6-0.7-1-0.7-1s0.5,0.2,1.2,0.4
				c0.7,0.3,1.7,0.6,2.6,1c1.9,0.7,3.8,1.5,3.8,1.5s0.3-0.4,0.8-1c0.5-0.6,1.2-1.4,1.8-2.2C522.8,209.2,524.2,207.7,524.2,207.7z"/>
		</g>
		<g>
			<path fill="#FFD059" d="M561.7,217.4c0,0-0.3,2-0.7,4.1c-0.4,2-0.7,4.1-0.7,4.1s1.8,1,3.5,2c0.9,0.5,1.8,1,2.4,1.4
				c0.6,0.4,1.1,0.7,1.1,0.7s-0.5,0-1.3,0.1c-0.7,0.1-1.7,0.2-2.7,0.3c-2,0.3-4,0.6-4,0.6s-0.4,2-0.8,4c-0.4,2-0.9,4-0.9,4
				s-0.8-1.8-1.5-3.6c-0.4-0.9-0.8-1.8-1.1-2.5c-0.3-0.7-0.5-1.1-0.5-1.1s-1.9,0.4-3.8,0.8c-0.9,0.2-1.9,0.4-2.6,0.6
				c-0.7,0.1-1.2,0.3-1.2,0.3s0.3-0.4,0.8-1c0.5-0.6,1.2-1.3,1.8-2.1c1.4-1.5,2.7-3,2.7-3s-0.9-1.8-1.9-3.6c-1-1.8-2-3.5-2-3.5
				s0.5,0.2,1.2,0.5c0.7,0.3,1.6,0.7,2.6,1.1c1.8,0.9,3.7,1.8,3.7,1.8s1.4-1.5,2.9-2.9c0.7-0.7,1.5-1.5,2-2
				C561.3,217.8,561.7,217.4,561.7,217.4z"/>
			<path fill="#FFD059" d="M597.3,237.6l-4.6,6.8c0,0,1.2,1.6,2.4,3.2c1.2,1.6,2.3,3.2,2.3,3.2s-1.9-0.7-3.8-1.2
				c-1.9-0.5-3.8-1.1-3.8-1.1l-4.6,6.8c0,0,0-0.5,0-1.2c0-0.7,0-1.8,0-2.7c-0.1-2-0.1-4-0.1-4s-1.9-0.4-3.8-0.8
				c-0.9-0.2-1.9-0.4-2.6-0.5c-0.7-0.1-1.2-0.2-1.2-0.2s1.8-0.9,3.6-1.8c0.9-0.5,1.8-0.9,2.5-1.2c0.7-0.3,1.2-0.5,1.2-0.5
				s0-0.5-0.1-1.3c0-0.8-0.1-1.8-0.2-2.8c-0.2-2-0.5-4.1-0.5-4.1s1.4,1.5,2.8,3c1.3,1.6,2.6,3.1,2.6,3.1s1.9-0.8,3.8-1.5
				C595.4,238.2,597.3,237.6,597.3,237.6z"/>
		</g>
		<g>
			<path fill="#FFD059" d="M626,263.7c0,0-1.2,1.6-2.5,3.3c-1.3,1.6-2.5,3.3-2.5,3.3s1.1,1.7,2.2,3.4c0.3,0.4,0.6,0.8,0.8,1.2
				c0.2,0.4,0.5,0.8,0.7,1.1c0.4,0.7,0.6,1.1,0.6,1.1s-0.5-0.2-1.2-0.5c-0.7-0.3-1.6-0.7-2.6-1c-1.9-0.7-3.8-1.3-3.8-1.3
				s-1.3,1.6-2.6,3.2c-1.3,1.6-2.6,3.1-2.6,3.1s0.2-2,0.3-3.9c0.1-1,0.2-2,0.2-2.7c0-0.7,0-1.2,0-1.2s-1.9-0.5-3.8-1.1
				c-0.9-0.3-1.9-0.5-2.5-0.7c-0.7-0.2-1.2-0.3-1.2-0.3s1.9-0.8,3.8-1.5c1.9-0.7,3.8-1.4,3.8-1.4s0-2,0-4.1c-0.1-2-0.2-4-0.2-4
				s0.3,0.4,0.8,1c0.5,0.6,1.1,1.4,1.7,2.2c1.2,1.6,2.4,3.3,2.4,3.3s2-0.6,3.9-1.3c1-0.3,2-0.6,2.7-0.8
				C625.5,263.9,626,263.7,626,263.7z"/>
			<path fill="#FFD059" d="M648.2,298.1l-7.2,4c0,0,0.3,2,0.7,4c0.2,1,0.3,2,0.4,2.7c0.1,0.7,0.1,1.2,0.1,1.2s-0.3-0.4-0.9-0.9
				c-0.5-0.5-1.2-1.2-2-1.9c-1.4-1.3-2.9-2.7-2.9-2.7l-7.2,3.9c0,0,1-1.7,1.9-3.5c0.9-1.8,1.7-3.6,1.7-3.6s-1.5-1.2-3-2.5
				c-0.7-0.6-1.5-1.2-2.1-1.6c-0.6-0.4-1-0.7-1-0.7s2,0,4.1,0.1c2,0.1,4,0.2,4,0.2s0.2-0.5,0.5-1.2c0.3-0.7,0.7-1.7,1.1-2.6
				c0.7-1.9,1.5-3.8,1.5-3.8s0.1,0.5,0.3,1.2c0.2,0.7,0.5,1.7,0.7,2.7c0.4,2,0.9,4,0.9,4s2.1,0.2,4.1,0.4c1,0.1,2.1,0.2,2.8,0.4
				C647.7,298,648.2,298.1,648.2,298.1z"/>
		</g>
		<g>
			<path fill="#FFD059" d="M661.5,334.6c0,0-1.9,0.9-3.7,1.8c-1.9,0.9-3.8,1.7-3.8,1.7s0.2,2,0.4,4c0.1,1,0.2,2,0.2,2.8
				c0,0.8,0.1,1.3,0.1,1.3s-0.3-0.4-0.8-1c-0.5-0.6-1.1-1.3-1.8-2.1c-1.4-1.5-2.7-2.9-2.7-2.9s-1.9,0.8-3.8,1.6
				c-1.9,0.8-3.8,1.6-3.8,1.6s1.1-1.6,2.1-3.3c0.5-0.8,1.1-1.7,1.4-2.3c0.4-0.6,0.6-1.1,0.6-1.1s-1.4-1.4-2.8-2.7
				c-0.7-0.7-1.4-1.3-1.9-1.8c-0.5-0.5-0.9-0.8-0.9-0.8s0.5,0.1,1.3,0.1c0.8,0.1,1.8,0.2,2.8,0.3c2,0.3,4,0.5,4,0.5s1-1.8,1.9-3.6
				c0.9-1.8,1.7-3.7,1.7-3.7s0.1,0.5,0.2,1.2c0.1,0.8,0.4,1.7,0.5,2.8c0.3,2,0.6,4,0.6,4s2,0.4,4.1,0.7c1,0.2,2,0.4,2.8,0.5
				C661,334.5,661.5,334.6,661.5,334.6z"/>
			<path fill="#FFD059" d="M665.1,375.3l-8.2,0.1l-2.6,7.6l-2.5-7.5l-8.2,0.1c0,0,0.4-0.3,1-0.7c0.6-0.4,1.4-1,2.2-1.6
				c1.6-1.2,3.2-2.3,3.2-2.3s-0.7-1.8-1.4-3.6c-0.8-1.8-1.6-3.5-1.6-3.5s1.8,1,3.5,2c0.9,0.5,1.8,1,2.4,1.4c0.6,0.4,1.1,0.7,1.1,0.7
				s0.4-0.3,1-0.8c0.6-0.5,1.4-1.1,2.1-1.8c1.5-1.3,3.1-2.7,3.1-2.7s-0.5,2-0.9,4c-0.2,1-0.5,2-0.7,2.7c-0.2,0.7-0.3,1.2-0.3,1.2
				s1.7,1.1,3.4,2.3C663.4,374.1,665.1,375.3,665.1,375.3z"/>
		</g>
	</g>
	<g>
		<g>
			<path fill="#CCCCCC" d="M787.2,507.8c4,1.9,8.8,0.1,10.8-4c1-2.1,0.9-4.3,0.1-6.3c-0.8-1.9-2.3-3.6-4.4-4.4
				c-2.1-0.9-4.3-0.8-6.1,0c-1.9,0.8-3.4,2.2-4.4,4.2C781.4,501.1,783.2,505.8,787.2,507.8z"/>
			<path fill="#CCCCCC" d="M737,583c3.3,3,8.5,2.6,11.5-0.8c2.9-3.5,2.4-8.7-1.1-11.5c-3.5-2.8-8.5-2.3-11.2,1
				C733.4,575,733.7,580.1,737,583z"/>
		</g>
		<g>
			<path fill="#CCCCCC" d="M667.6,641.2c2.3,3.8,7.4,4.9,11.2,2.5c3.8-2.6,4.8-7.7,2.2-11.3c-2.6-3.6-7.5-4.6-11.1-2.2
				C666.4,632.6,665.3,637.4,667.6,641.2z"/>
			<path fill="#CCCCCC" d="M584.8,677.6c0.6,2.1,2,3.9,3.8,4.9c0.9,0.5,1.9,0.8,3,1c0.5,0.1,1.1,0.1,1.6,0c0.5-0.1,1.1-0.2,1.6-0.4
				c4.4-1.4,6.7-6,5.3-10.2c-1.4-4.2-5.9-6.6-10-5.2c-0.5,0.2-1,0.4-1.5,0.6c-0.5,0.2-0.9,0.5-1.3,0.8c-0.8,0.6-1.4,1.4-1.9,2.3
				C584.5,673.2,584.2,675.4,584.8,677.6z"/>
		</g>
		<g>
			<path fill="#CCCCCC" d="M494.9,689c0,2.2,0.8,4.3,2.3,5.8c1.5,1.5,3.5,2.3,5.8,2.3c4.6-0.1,8.1-3.8,8-8.2c-0.2-4.5-3.8-8-8.1-7.9
				c-2.2,0-4.1,1-5.6,2.4C495.9,684.8,495,686.8,494.9,689z"/>
			<path fill="#CCCCCC" d="M405.6,674.7c-1.3,4.2,1.1,8.7,5.5,10c2.2,0.6,4.4,0.4,6.2-0.7c1.8-1.1,3.2-2.8,3.7-5
				c0.5-2.2,0.2-4.3-0.8-6.1c-1-1.7-2.6-3.2-4.7-3.8C411.4,668,406.9,670.5,405.6,674.7z"/>
		</g>
		<g>
			<path fill="#CCCCCC" d="M323.8,635.8c-2.5,3.7-1.4,8.7,2.4,11.3c1.9,1.3,4.2,1.5,6.2,1c2-0.5,3.8-1.8,5-3.7
				c1.1-1.9,1.4-4.1,0.9-6.1c-0.5-2-1.7-3.7-3.5-4.9C331.2,631,326.3,632.1,323.8,635.8z"/>
			<path fill="#CCCCCC" d="M256.4,575.4c-3.4,2.8-3.8,8-0.9,11.5c3.1,3.4,8.3,3.6,11.5,0.6s3.5-8.1,0.6-11.2
				C264.9,573,259.9,572.6,256.4,575.4z"/>
		</g>
		<g>
			<path fill="#CCCCCC" d="M208.6,498.5c-4.1,1.8-6,6.6-4,10.8c2,4.1,6.9,5.8,10.9,3.8c4-2,5.6-6.8,3.7-10.6
				C217.4,498.5,212.7,496.7,208.6,498.5z"/>
			<path fill="#CCCCCC" d="M184.5,411.3c-2.2,0.3-4.1,1.4-5.4,3.1c-0.6,0.8-1.1,1.8-1.4,2.8c-0.3,1-0.3,2.1-0.1,3.3
				c0.8,4.5,4.9,7.5,9.3,6.7c4.4-0.8,7.4-4.9,6.6-9.2c-0.2-1.1-0.6-2-1.1-2.9c-0.5-0.9-1.2-1.6-2-2.2
				C188.8,411.7,186.7,411,184.5,411.3z"/>
		</g>
		<g>
			<path fill="#CCCCCC" d="M185.9,320.7c-4.4-0.7-8.5,2.4-9.1,6.9c-0.6,4.5,2.5,8.6,6.9,9.1c4.4,0.5,8.5-2.6,9.1-6.9
				C193.4,325.5,190.3,321.4,185.9,320.7z"/>
			<path fill="#CCCCCC" d="M212.8,234.3c-4-1.9-8.8-0.1-10.8,4c-1,2.1-0.9,4.3-0.1,6.3c0.8,1.9,2.3,3.6,4.4,4.4
				c2.1,0.9,4.3,0.8,6.1,0c1.9-0.8,3.4-2.2,4.4-4.2C218.6,241,216.8,236.3,212.8,234.3z"/>
		</g>
		<g>
			<path fill="#CCCCCC" d="M263,158.9c-3.3-3-8.5-2.6-11.5,0.8c-2.9,3.5-2.4,8.7,1.1,11.5c3.5,2.8,8.5,2.3,11.2-1
				C266.7,167,266.3,161.9,263,158.9z"/>
			<path fill="#CCCCCC" d="M332.3,100.8c-2.3-3.8-7.4-4.9-11.2-2.5c-3.8,2.6-4.8,7.7-2.2,11.3s7.5,4.6,11.1,2.2
				C333.6,109.5,334.7,104.6,332.3,100.8z"/>
		</g>
		<g>
			<path fill="#CCCCCC" d="M415.3,64.4c-0.6-2.1-2-3.9-3.8-4.9c-0.9-0.5-1.9-0.8-3-1c-0.5-0.1-1.1-0.1-1.6,0
				c-0.5,0.1-1.1,0.2-1.6,0.4c-4.4,1.4-6.7,6-5.3,10.2c1.4,4.2,5.9,6.6,10,5.2c0.5-0.2,1-0.4,1.5-0.6c0.5-0.2,0.9-0.5,1.3-0.8
				c0.8-0.6,1.4-1.4,1.9-2.3C415.6,68.8,415.9,66.6,415.3,64.4z"/>
			<path fill="#CCCCCC" d="M505,53c0-2.2-0.8-4.3-2.3-5.8c-1.5-1.5-3.5-2.3-5.8-2.3c-4.6,0.1-8.1,3.8-8,8.2c0.2,4.5,3.8,8,8.1,7.9
				c2.2,0,4.1-1,5.6-2.4C504.1,57.2,505,55.2,505,53z"/>
		</g>
		<g>
			<path fill="#CCCCCC" d="M594.5,67.3c1.3-4.2-1.1-8.7-5.5-10c-2.2-0.6-4.4-0.4-6.2,0.7c-1.8,1.1-3.2,2.8-3.7,5
				c-0.5,2.2-0.2,4.3,0.8,6.1c1,1.7,2.6,3.2,4.7,3.8C588.7,74,593.1,71.6,594.5,67.3z"/>
			<path fill="#CCCCCC" d="M676.2,106.2c2.5-3.7,1.4-8.7-2.4-11.3c-3.9-2.4-8.9-1.1-11.2,2.7c-2.3,3.9-1.1,8.7,2.6,11
				C668.7,111,673.7,109.9,676.2,106.2z"/>
		</g>
		<g>
			<path fill="#CCCCCC" d="M743.6,166.6c3.4-2.8,3.8-8,0.9-11.5c-3.1-3.4-8.3-3.6-11.5-0.6c-3.3,3-3.5,8.1-0.6,11.2
				C735.2,169.1,740.2,169.5,743.6,166.6z"/>
			<path fill="#CCCCCC" d="M791.3,243.5c4.1-1.8,6-6.6,4-10.8c-2-4.1-6.9-5.8-10.9-3.8c-4,2-5.6,6.8-3.7,10.6
				C782.6,243.5,787.2,245.3,791.3,243.5z"/>
		</g>
		<g>
			<path fill="#CCCCCC" d="M815.5,330.8c2.2-0.3,4.1-1.4,5.4-3.1c0.6-0.8,1.1-1.8,1.4-2.8c0.3-1,0.3-2.1,0.1-3.3
				c-0.8-4.5-4.9-7.5-9.3-6.7c-4.4,0.8-7.4,4.9-6.6,9.2c0.2,1.1,0.6,2,1.1,2.9c0.5,0.9,1.2,1.6,2,2.2
				C811.2,330.4,813.3,331.1,815.5,330.8z"/>
			<path fill="#CCCCCC" d="M814.1,421.3c4.4,0.7,8.5-2.4,9.1-6.9c0.6-4.5-2.5-8.6-6.9-9.1c-4.4-0.5-8.5,2.6-9.1,6.9
				C806.6,416.5,809.7,420.5,814.1,421.3z"/>
		</g>
	</g>
</g>
<g id="Leaf">
	<path fill="#486834" d="M537.7,404.2c0,0-26.6-18.7,8-46c0,0,5.4-6.2,28.5-12.6c7.9-2.2,14.9-7.1,19.5-14c0-0.1,0.1-0.1,0.1-0.2
		c0,0,9.9,79-49.8,78.3c0,0-16.5-25.6,34.1-51.8C578,357.9,538,369.9,537.7,404.2z"/>
	<path fill="#486834" d="M464,409.1c0,0-55,6.4-49.9-67.3c0-0.3,0.1-0.6,0.3-0.9c0.5-1,1.5-5.2-1.2-21.5c0,0,10.4,18.6,42.3,30.4
		c3.8,1.4,7.2,3.9,9.8,7.1c6.7,8.4,16.4,25.9,5.9,48c0,0-21.2-9.9-35.2-46.3C435.9,358.5,431.4,385.2,464,409.1z"/>
	<path fill="#486834" d="M496.3,393.6c0,0-56.2-40.2,3.1-115.8c0,0,72.5,70.5,3,117.5c0,0,18.8-38.1,7.5-79.7
		C510,315.6,510.3,376.6,496.3,393.6z"/>
</g>
<g id="Leaf_stems">
	<path fill="#486834" d="M469.7,401.1c0,0,2.6,2.4,6.7,5.7c1,0.8,2.2,1.7,3.4,2.6c1.2,0.9,2.5,1.9,3.8,2.9c1.3,1,2.8,2,4.2,2.9
		c1.5,1,2.9,2,4.4,2.9c1.5,0.9,3,1.9,4.5,2.8c1.5,0.9,3,1.7,4.5,2.5c1.5,0.8,2.9,1.5,4.3,2.2c1.4,0.6,2.7,1.3,3.9,1.8
		c1.2,0.5,2.3,1,3.3,1.4c1,0.4,1.9,0.7,2.6,1c1.5,0.5,2.3,0.8,2.3,0.8s-0.8-0.3-2.3-0.8c-0.7-0.2-1.6-0.5-2.7-0.9
		c-1-0.4-2.2-0.8-3.4-1.3c-1.3-0.5-2.6-1.1-4-1.7c-1.4-0.6-2.9-1.3-4.4-2c-1.5-0.7-3-1.5-4.6-2.4c-1.6-0.8-3.1-1.7-4.6-2.6
		c-1.6-0.9-3-1.9-4.6-2.8c-1.5-0.9-2.9-1.9-4.3-2.8c-1.4-0.9-2.7-1.8-4-2.8c-1.3-0.9-2.4-1.7-3.5-2.6c-4.3-3.2-7-5.6-7-5.6
		L469.7,401.1z"/>
	<path fill="#486834" d="M506.4,390.7c0,0-0.1,0.2-0.3,0.6c-0.2,0.4-0.4,0.9-0.8,1.6c-0.3,0.7-0.8,1.5-1.3,2.5
		c-0.5,0.9-1.1,2-1.8,3.2c-0.7,1.1-1.4,2.4-2.2,3.7c-0.8,1.3-1.7,2.6-2.7,4c-0.9,1.4-2,2.7-3,4.1c-1.1,1.3-2.2,2.8-3.4,4.1
		c-1.2,1.3-2.3,2.7-3.6,3.9c-0.6,0.6-1.2,1.2-1.8,1.8c-0.6,0.6-1.3,1.1-1.9,1.7c-0.6,0.6-1.2,1.1-1.8,1.6c-0.6,0.5-1.2,1-1.8,1.5
		c-1.2,0.9-2.3,1.9-3.4,2.6c-1.1,0.7-2.1,1.4-3,2c-0.9,0.5-1.8,1-2.4,1.4c-1.3,0.7-2.1,1.2-2.1,1.2s0.8-0.5,2.1-1.2
		c0.7-0.4,1.5-0.9,2.4-1.4c0.9-0.6,1.8-1.3,2.9-2.1c1.1-0.7,2.1-1.7,3.3-2.7c0.6-0.5,1.2-1,1.8-1.5c0.6-0.5,1.2-1.1,1.7-1.7
		c0.6-0.6,1.2-1.1,1.8-1.8c0.6-0.6,1.2-1.3,1.7-1.9c1.2-1.2,2.3-2.6,3.4-4c1.1-1.3,2.1-2.8,3.2-4.1c1-1.4,2-2.8,2.9-4.2
		c0.9-1.4,1.7-2.7,2.5-4c0.8-1.3,1.5-2.5,2.1-3.7c0.6-1.1,1.2-2.2,1.6-3.2c0.5-1,0.9-1.8,1.2-2.5c0.3-0.7,0.6-1.2,0.7-1.6
		c0.2-0.4,0.2-0.6,0.2-0.6L506.4,390.7z"/>
	<path fill="#486834" d="M537.6,401c0,0,0.4,2.3,1.2,5.7c0.4,1.7,1,3.7,1.6,5.8c0.3,1.1,0.7,2.1,1,3.3c0.4,1.1,0.8,2.2,1.2,3.3
		c0.4,1.1,0.8,2.2,1.3,3.3c0.5,1.1,0.9,2.1,1.4,3.1c0.5,1,0.9,2,1.4,2.9c0.5,0.9,0.9,1.8,1.4,2.5c0.5,0.8,0.9,1.5,1.2,2.1
		c0.4,0.6,0.8,1.1,1,1.6c0.6,0.9,0.9,1.4,0.9,1.4s-0.4-0.5-1-1.3c-0.3-0.4-0.7-0.9-1.1-1.5c-0.4-0.6-0.9-1.3-1.4-2
		c-0.5-0.7-1-1.6-1.5-2.5c-0.5-0.9-1-1.8-1.6-2.8c-0.5-1-1-2-1.6-3.1c-0.5-1-1-2.2-1.5-3.2c-0.5-1.1-0.9-2.2-1.4-3.3
		c-0.4-1.1-0.8-2.2-1.2-3.2c-0.8-2.1-1.4-4.1-1.9-5.8c-1-3.4-1.6-5.8-1.6-5.8L537.6,401z"/>
</g>
<g id="Ribbon">
	<g>
		<path fill="#B2C965" d="M168.8,631.7c-49.2,1.7-97.8,7.3-145.3,16.6c12-29.8,25.3-59.4,40-88.7C47,531.3,29.1,503.4,9.9,476.1
			c56.9-4.5,114.2-4.5,171.1,0C177,527.9,172.9,579.8,168.8,631.7z"/>
	</g>
	<g>
		<path fill="#B2C965" d="M978.5,648.3c-47.5-9.3-96.1-14.9-145.3-16.6c-4.1-51.9-8.2-103.7-12.2-155.6c56.9-4.5,114.2-4.5,171.1,0
			c-20,27.3-38.6,55.2-55.8,83.5C951.8,588.8,965.8,618.4,978.5,648.3z"/>
	</g>
	<g>
		<path fill="#B2C965" d="M906.5,615.5c-270.6-21.3-542.4-21.3-813,0c-4.6-57.8-9.1-115.6-13.7-173.5c279.7-22,560.6-22,840.3,0
			C915.6,499.9,911.1,557.7,906.5,615.5z"/>
	</g>
	<polygon fill="#486834" points="92.5,617.5 167.5,629.6 168.7,611.4 	"/>
	<polygon fill="#486834" points="908.8,617.5 834.8,629.6 833.7,611.4 	"/>
</g>
<g id="Fresh__x27_n_Healthy">
	<g>
		<g>
			<path fill="#1A1A1A" d="M108.8,572.6c-0.4-5.3-0.8-10.7-1.3-16c2.6-0.2,5.2-0.4,7.8-0.6c-1.6-20.9-3.2-41.8-4.8-62.8
				c-2.6,0.2-5.3,0.4-7.9,0.6c-0.4-5.3-0.8-10.7-1.3-16c16.5-1.3,33-2.5,49.5-3.7c0.7,9.8,1.3,19.5,2,29.3c-3.5,0.2-7,0.5-10.5,0.7
				c-0.3-4.4-0.6-8.8-0.9-13.2c-5.5,0.4-11,0.8-16.6,1.2c0.5,7.3,1.1,14.6,1.6,22c4-0.3,7.9-0.6,11.9-0.9c0.4,5.3,0.8,10.7,1.2,16
				c-3.9,0.3-7.9,0.6-11.8,0.9c0.6,8.3,1.2,16.5,1.8,24.8c2.8-0.2,5.6-0.4,8.4-0.6c0.4,5.3,0.8,10.7,1.2,16
				C128.9,571.1,118.9,571.8,108.8,572.6z"/>
			<path fill="#1A1A1A" d="M215.7,549.3c0.3,5.3,0.6,10.7,0.9,16c-5.5,0.3-11,0.6-16.5,1c-4.9-13.6-9.9-27.2-14.9-40.8
				c-2.1,0.1-4.2,0.3-6.3,0.4c0.5,8.5,1.1,17,1.6,25.5c2.3-0.1,4.5-0.3,6.8-0.4c0.3,5.3,0.7,10.7,1,16c-9.5,0.6-18.9,1.2-28.4,1.9
				c-0.4-5.3-0.7-10.7-1.1-16c2.5-0.2,5-0.3,7.5-0.5c-1.4-20.9-2.8-41.9-4.2-62.8c-2.5,0.2-5,0.3-7.6,0.5c-0.4-5.3-0.7-10.7-1.1-16
				c11.1-0.8,22.3-1.5,33.4-2.2c6.3-0.4,11,2.1,14.1,7.3c3.1,5.3,4.8,11.3,5.2,18.2c0.6,10.8-2.1,18.8-8.1,24.2
				c3.5,9.4,7.1,18.8,10.6,28.1C211,549.6,213.3,549.4,215.7,549.3z M177.9,510.7c1.6-0.1,3.3-0.2,4.9-0.3c6.1-0.4,8.9-4.3,8.4-11.8
				c-0.2-3.7-1.1-6.4-2.6-8.1c-1.5-1.7-3.5-2.5-5.9-2.4c-2.1,0.1-4.2,0.3-6.2,0.4C177,496,177.5,503.4,177.9,510.7z"/>
			<path fill="#1A1A1A" d="M219.1,565.2c-0.3-5.3-0.6-10.7-0.9-16c2.2-0.1,4.4-0.2,6.5-0.4c-1.2-21-2.3-41.9-3.5-62.9
				c-2.2,0.1-4.4,0.2-6.6,0.4c-0.3-5.3-0.6-10.7-0.9-16c16.3-0.9,32.5-1.8,48.8-2.5c0.5,10,0.9,20.1,1.4,30.1
				c-3.5,0.2-7,0.3-10.5,0.5c-0.2-4.7-0.5-9.4-0.7-14.1c-5.7,0.3-11.4,0.6-17.1,0.9c0.4,7.3,0.8,14.6,1.1,21.9
				c4.6-0.2,9.2-0.5,13.8-0.7c0.3,5.3,0.5,10.7,0.8,16c-4.6,0.2-9.1,0.5-13.7,0.7c0.4,8.3,0.9,16.6,1.3,24.9
				c5.6-0.3,11.3-0.6,16.9-0.9c-0.2-4.7-0.5-9.5-0.7-14.2c3.5-0.2,7-0.3,10.5-0.5c0.5,10.1,0.9,20.2,1.4,30.3
				C251,563.5,235,564.3,219.1,565.2z"/>
			<path fill="#1A1A1A" d="M273.6,562.4c-0.5-10.8-1-21.6-1.5-32.4c3.1-0.1,6.2-0.3,9.3-0.4c0.4,5.9,1.4,10.2,3.2,13
				c1.8,2.7,3.8,4,5.9,4c1.7-0.1,3-1.1,4.1-3.2c1.1-2.1,1.5-4.5,1.4-7.2c-0.1-2.9-0.8-5.3-2-7.3c-1.2-1.9-3.4-4.1-6.5-6.5
				c-6.6-5-11.1-9.5-13.5-13.5c-2.5-4-3.8-9.4-4.2-16.3c-0.4-8.3,0.8-14.8,3.7-19.5c2.8-4.7,6.2-7.1,10-7.3
				c4.4-0.2,7.9,2.6,10.6,8.4c-0.1-2.6-0.2-5.3-0.3-7.9c3.1-0.1,6.2-0.2,9.4-0.4c0.4,9.6,0.7,19.3,1.1,28.9
				c-3.1,0.1-6.2,0.2-9.3,0.4c-0.5-4.5-1.5-7.9-3.1-10.2c-1.6-2.4-3.4-3.5-5.4-3.4c-1.5,0.1-2.8,0.8-3.8,2.3c-1,1.5-1.4,3.3-1.3,5.6
				c0.1,2,0.6,3.8,1.5,5.5c0.9,1.7,3.6,4.1,8,7.1c4.2,3,7.4,5.7,9.7,8.1c2.3,2.4,4.1,5.7,5.5,9.6c1.4,4,2.2,8.6,2.4,13.9
				c0.4,9.4-0.9,16.5-3.9,21.4c-2.9,4.9-6.5,7.4-10.8,7.6c-4.8,0.2-8.6-2.7-11.4-8.8c0.1,2.7,0.2,5.4,0.4,8.1
				C279.7,562.1,276.7,562.3,273.6,562.4z"/>
			<path fill="#1A1A1A" d="M314.7,560.7c-0.2-5.4-0.4-10.7-0.6-16.1c2.3-0.1,4.5-0.2,6.8-0.2c-0.7-21-1.5-41.9-2.2-62.9
				c-2.3,0.1-4.6,0.2-6.9,0.3c-0.2-5.4-0.4-10.7-0.6-16.1c8.9-0.3,17.8-0.6,26.8-0.9c0.2,5.4,0.3,10.7,0.5,16.1
				c-1.9,0.1-3.9,0.1-5.8,0.2c0.2,6.9,0.5,13.9,0.7,20.8c5-0.2,10-0.3,15-0.5c-0.2-6.9-0.4-13.9-0.6-20.8c-1.9,0.1-3.7,0.1-5.6,0.2
				c-0.2-5.4-0.3-10.7-0.5-16.1c8.9-0.3,17.7-0.5,26.6-0.8c0.1,5.4,0.3,10.7,0.4,16.1c-2.3,0.1-4.6,0.1-6.9,0.2
				c0.6,21,1.1,42,1.7,62.9c2.3-0.1,4.5-0.1,6.8-0.2c0.1,5.4,0.3,10.7,0.4,16.1c-8.7,0.2-17.4,0.5-26.1,0.7
				c-0.2-5.4-0.3-10.7-0.5-16.1c1.8-0.1,3.7-0.1,5.5-0.2c-0.3-8.7-0.5-17.3-0.8-26c-5,0.1-10,0.3-14.9,0.5c0.3,8.7,0.6,17.3,0.9,26
				c1.9-0.1,3.8-0.1,5.7-0.2c0.2,5.4,0.3,10.7,0.5,16.1C332.2,560.1,323.5,560.4,314.7,560.7z"/>
			<path fill="#1A1A1A" d="M406.1,463.1c0.1,3.5,0.1,7,0.2,10.5c-4.3,0.9-6.4,5.4-6.3,13.7c0,0.4,0,0.8,0,1.2c2.2,0,4.3-0.1,6.5-0.1
				c0.1,7.6,0.3,15.3,0.4,22.9c-4.4,0.1-8.8,0.2-13.2,0.3c-0.1-7.1-0.3-14.2-0.4-21.3c-0.2-10.9,0.8-18.1,3.1-21.7
				C398.7,465,401.9,463.1,406.1,463.1z"/>
			<path fill="#1A1A1A" d="M417.6,558c-0.1-5.4-0.2-10.7-0.3-16.1c2.4,0,4.9-0.1,7.3-0.1c-0.3-21-0.6-42-0.9-63
				c-2.5,0-4.9,0.1-7.4,0.1c-0.1-5.4-0.2-10.7-0.3-16.1c7.8-0.1,15.5-0.2,23.3-0.3c7,19.7,14,39.4,20.9,59.1
				c-0.1-14.4-0.2-28.8-0.3-43.2c-2.4,0-4.8,0-7.2,0.1c0-5.4-0.1-10.7-0.1-16.1c8.3-0.1,16.6-0.1,24.9-0.2c0,5.4,0,10.7,0.1,16.1
				c-2.6,0-5.2,0-7.7,0c0.2,26.6,0.3,53.1,0.5,79.7c-4,0-8.1,0.1-12.1,0.1c-8-23.4-16.1-46.8-24.4-70.2c0.2,17.9,0.5,35.8,0.7,53.7
				c2.3,0,4.6-0.1,6.9-0.1c0.1,5.4,0.1,10.7,0.2,16.1C433.4,557.7,425.5,557.8,417.6,558z"/>
			<path fill="#1A1A1A" d="M501.3,557.3c0-5.4,0-10.7,0-16.1c2.3,0,4.6,0,6.8,0c0-21,0.1-42,0.1-63c-2.3,0-4.6,0-6.9,0
				c0-5.4,0-10.7,0-16.1c8.9,0,17.9,0,26.8,0.1c0,5.4-0.1,10.7-0.1,16.1c-1.9,0-3.9,0-5.8,0c0,6.9-0.1,13.9-0.1,20.8
				c5,0,10,0.1,15,0.1c0.1-6.9,0.1-13.9,0.2-20.8c-1.9,0-3.7,0-5.6,0c0-5.4,0.1-10.7,0.1-16.1c8.9,0.1,17.7,0.1,26.6,0.2
				c-0.1,5.4-0.1,10.7-0.2,16.1c-2.3,0-4.6-0.1-6.9-0.1c-0.2,21-0.4,42-0.6,63c2.3,0,4.6,0,6.8,0.1c-0.1,5.4-0.1,10.7-0.2,16.1
				c-8.7-0.1-17.4-0.2-26.1-0.2c0-5.4,0.1-10.7,0.1-16.1c1.8,0,3.7,0,5.5,0c0.1-8.7,0.1-17.3,0.2-26c-5,0-10-0.1-14.9-0.1
				c0,8.7-0.1,17.3-0.1,26c1.9,0,3.8,0,5.7,0c0,5.4-0.1,10.7-0.1,16.1C518.8,557.3,510.1,557.3,501.3,557.3z"/>
			<path fill="#1A1A1A" d="M562.4,557.7c0.1-5.4,0.1-10.7,0.2-16.1c2.2,0,4.4,0.1,6.6,0.1c0.3-21,0.6-42,0.9-63
				c-2.2,0-4.4-0.1-6.6-0.1c0.1-5.4,0.1-10.7,0.2-16.1c16.3,0.2,32.6,0.5,48.8,0.9c-0.2,10-0.4,20.1-0.7,30.1
				c-3.5-0.1-7-0.2-10.5-0.2c0.1-4.7,0.2-9.4,0.3-14.1c-5.7-0.1-11.4-0.2-17.1-0.3c-0.1,7.3-0.2,14.6-0.4,21.9
				c4.6,0.1,9.2,0.2,13.8,0.3c-0.1,5.4-0.2,10.7-0.3,16.1c-4.6-0.1-9.1-0.2-13.7-0.3c-0.1,8.3-0.3,16.6-0.4,24.9
				c5.6,0.1,11.3,0.2,16.9,0.3c0.1-4.7,0.2-9.5,0.3-14.2c3.5,0.1,7,0.1,10.5,0.2c-0.2,10.1-0.5,20.2-0.7,30.3
				C594.3,558.2,578.3,557.9,562.4,557.7z"/>
			<path fill="#1A1A1A" d="M669.6,544.1c-0.2,5.4-0.4,10.7-0.5,16.1c-8.9-0.3-17.8-0.6-26.7-0.8c0.2-5.4,0.3-10.7,0.5-16.1
				c2.3,0.1,4.7,0.1,7,0.2c-0.7-5.5-1.4-10.9-2.1-16.4c-4.7-0.1-9.5-0.3-14.2-0.4c-1.1,5.4-2.2,10.8-3.3,16.3
				c2.4,0.1,4.9,0.1,7.3,0.2c-0.1,5.4-0.3,10.7-0.4,16.1c-8-0.2-16.1-0.4-24.1-0.6c0.1-5.4,0.2-10.7,0.4-16.1
				c2.2,0.1,4.5,0.1,6.7,0.2c4.1-20.9,8.1-41.8,12.3-62.7c-2.4-0.1-4.9-0.1-7.3-0.2c0.1-5.4,0.3-10.7,0.4-16.1
				c12.1,0.3,24.1,0.6,36.2,1c-0.2,5.4-0.3,10.7-0.5,16.1c-2.5-0.1-5-0.2-7.4-0.2c3.2,21.1,6.4,42.2,9.5,63.3
				C665.3,544,667.5,544.1,669.6,544.1z M645.9,513.1c-1.2-9.6-2.5-19.2-3.8-28.8c-1.9,9.5-3.8,19-5.7,28.5
				C639.5,512.9,642.7,513,645.9,513.1z"/>
			<path fill="#1A1A1A" d="M671.2,560.3c0.2-5.4,0.4-10.7,0.6-16.1c2.6,0.1,5.2,0.2,7.8,0.3c0.8-21,1.5-41.9,2.3-62.9
				c-2.6-0.1-5.3-0.2-7.9-0.3c0.2-5.4,0.4-10.7,0.6-16.1c10.1,0.4,20.3,0.7,30.4,1.1c-0.2,5.4-0.4,10.7-0.7,16.1
				c-2.7-0.1-5.4-0.2-8.1-0.3c-0.8,21-1.6,41.9-2.5,62.9c5.4,0.2,10.7,0.4,16.1,0.7c0.4-9.8,0.8-19.6,1.2-29.4
				c3.6,0.2,7.1,0.3,10.7,0.5c-0.7,15.1-1.3,30.3-2,45.4C703.6,561.5,687.4,560.8,671.2,560.3z"/>
			<path fill="#1A1A1A" d="M730.5,562.7c0.2-5.3,0.5-10.7,0.7-16c2.7,0.1,5.5,0.3,8.2,0.4c1-21,2-41.9,3-62.9
				c-2.8-0.1-5.5-0.3-8.3-0.4c-0.3,7.4-0.7,14.7-1,22.1c-3.1-0.1-6.3-0.3-9.4-0.4c0.6-12.7,1.1-25.4,1.7-38.2
				c16.7,0.7,33.5,1.6,50.2,2.5c-0.7,12.7-1.4,25.4-2.1,38.2c-3.1-0.2-6.2-0.3-9.3-0.5c0.4-7.4,0.8-14.7,1.2-22.1
				c-2.8-0.1-5.7-0.3-8.5-0.4c-1.1,21-2.1,41.9-3.2,62.9c2.7,0.1,5.5,0.3,8.2,0.4c-0.3,5.3-0.6,10.7-0.8,16
				C750.8,563.6,740.7,563.1,730.5,562.7z"/>
			<path fill="#1A1A1A" d="M775.3,565c0.3-5.3,0.6-10.7,0.9-16c2.3,0.1,4.5,0.3,6.8,0.4c1.2-21,2.4-41.9,3.6-62.9
				c-2.3-0.1-4.6-0.3-6.9-0.4c0.3-5.3,0.6-10.7,0.9-16c8.9,0.5,17.8,1,26.7,1.6c-0.3,5.3-0.7,10.7-1,16c-1.9-0.1-3.9-0.2-5.8-0.3
				c-0.4,6.9-0.8,13.9-1.2,20.8c5,0.3,10,0.6,15,0.9c0.4-6.9,0.9-13.9,1.3-20.8c-1.9-0.1-3.7-0.2-5.6-0.3c0.3-5.3,0.7-10.7,1-16
				c8.8,0.5,17.7,1.1,26.5,1.7c-0.4,5.3-0.7,10.7-1.1,16c-2.3-0.2-4.6-0.3-6.9-0.5c-1.4,20.9-2.7,41.9-4.1,62.8
				c2.3,0.1,4.5,0.3,6.8,0.5c-0.4,5.3-0.7,10.7-1.1,16c-8.7-0.6-17.4-1.1-26-1.7c0.3-5.3,0.7-10.7,1-16c1.8,0.1,3.7,0.2,5.5,0.3
				c0.5-8.6,1.1-17.3,1.6-25.9c-5-0.3-9.9-0.6-14.9-0.9c-0.5,8.6-1,17.3-1.5,25.9c1.9,0.1,3.8,0.2,5.7,0.3c-0.3,5.3-0.7,10.7-1,16
				C792.8,566,784.1,565.4,775.3,565z"/>
			<path fill="#1A1A1A" d="M847.2,569.5c0.4-5.3,0.7-10.7,1.1-16c2.5,0.2,5.1,0.4,7.6,0.5c0.6-8.5,1.2-17.1,1.8-25.6
				c-4.1-12.7-8.2-25.5-12.3-38.2c-2.2-0.2-4.5-0.3-6.7-0.5c0.4-5.3,0.7-10.7,1.1-16c9.2,0.6,18.5,1.3,27.7,1.9
				c-0.4,5.3-0.8,10.7-1.2,16c-1.8-0.1-3.6-0.3-5.4-0.4c2.1,7.9,4.3,15.8,6.4,23.7c3.3-7.5,6.6-15,9.9-22.5
				c-1.9-0.1-3.8-0.3-5.7-0.4c0.4-5.3,0.8-10.7,1.2-16c8.1,0.6,16.3,1.2,24.4,1.9c-0.4,5.3-0.8,10.7-1.3,16
				c-2.3-0.2-4.5-0.4-6.8-0.5c-5.7,12-11.4,24-17,36.1c-0.6,8.5-1.3,17.1-1.9,25.6c2.5,0.2,5.1,0.4,7.6,0.6
				c-0.4,5.3-0.8,10.7-1.2,16C866.7,570.9,856.9,570.2,847.2,569.5z"/>
		</g>
	</g>
</g>
<g id="Online_Farmers_x27__Market">
	<g>
		<path fill="#F2F2F2" d="M258.6,347.7c3.5-0.1,6.8,0.6,9.9,1.9c3.1,1.3,5.8,3.1,8.1,5.4c2.3,2.3,4.2,5,5.5,8.1
			c1.4,3.1,2.1,6.4,2.2,10c0.1,3.6-0.6,7-1.8,10.1c-1.3,3.1-3,5.9-5.3,8.3s-4.9,4.3-7.9,5.7c-3,1.4-6.3,2.1-9.8,2.2
			c-3.5,0.1-6.8-0.6-9.9-1.9c-3.1-1.3-5.9-3.1-8.2-5.4s-4.2-5-5.5-8.1s-2.1-6.4-2.1-10c-0.1-3.6,0.5-6.9,1.8-10.1
			c1.3-3.1,3-5.9,5.3-8.3c2.2-2.4,4.9-4.3,8-5.7C251.8,348.5,255.1,347.7,258.6,347.7z M259.3,391.1c2.4,0,4.7-0.5,6.8-1.5
			c2.1-0.9,4-2.2,5.5-3.8c1.6-1.6,2.8-3.5,3.6-5.7c0.9-2.2,1.3-4.5,1.2-6.9c0-2.4-0.5-4.7-1.5-6.8c-0.9-2.1-2.2-4-3.8-5.5
			c-1.6-1.6-3.5-2.8-5.6-3.7c-2.1-0.9-4.4-1.3-6.9-1.3c-2.4,0-4.7,0.5-6.8,1.5s-4,2.2-5.5,3.8c-1.6,1.6-2.8,3.5-3.6,5.6
			c-0.9,2.2-1.3,4.4-1.2,6.9c0,2.4,0.5,4.7,1.4,6.8s2.2,4,3.8,5.5c1.6,1.6,3.5,2.8,5.6,3.7C254.6,390.7,256.8,391.2,259.3,391.1z"/>
		<path fill="#F2F2F2" d="M269.9,314.5l-29-6.1l1.6-7.5l51.7,10.8l-35.7,16.4l28.7,6l-1.6,7.5l-51.5-10.8L269.9,314.5z"/>
		<path fill="#F2F2F2" d="M247.1,287.3l2.8-7.2l39.8,15.3l6.3-16.3l7.1,2.7l-9,23.5L247.1,287.3z"/>
		<path fill="#F2F2F2" d="M261.4,252.6l3.5-6.8l45,23.2l-3.5,6.8L261.4,252.6z"/>
		<path fill="#F2F2F2" d="M308.5,231.7L284,215l4.3-6.3l43.7,29.7l-39.2,1.6l24.3,16.5l-4.3,6.3l-43.5-29.6L308.5,231.7z"/>
		<path fill="#F2F2F2" d="M297.6,198l15.9-17l5.6,5.2l-10.7,11.4l13.6,12.7l10.7-11.4l5.6,5.2l-10.7,11.4l6.4,6l10.7-11.4l5.6,5.2
			l-15.9,17L297.6,198z"/>
		<path fill="#F2F2F2" d="M345.3,154.3l19.5-12.7l4.2,6.4l-13.1,8.5l7.5,11.5l13.1-8.5l4.2,6.4l-13.1,8.5l11.6,17.9l-6.4,4.2
			L345.3,154.3z"/>
		<path fill="#F2F2F2" d="M398.1,172.9l0.5,7.5l-7.4,3.4l-3.7-56.4l40.6,39.4l-7.4,3.4l-5.3-5.2L398.1,172.9z M397.6,164.7l11.7-5.4
			l-12.9-12.5L397.6,164.7z"/>
		<path fill="#F2F2F2" d="M450,145.7l10.6,12.8l-8,2l-8.1-10c-1.6,1-3.4,1.7-5.4,2.2l-0.6,0.1l2.6,10.4l-7.4,1.9L421.4,116l8-2
			c5.3-1.3,10.4-0.6,15.1,2.2c4.7,2.8,7.8,6.9,9.1,12.2c1.3,5.3,0.6,10.4-2.2,15.1C451,144.4,450.5,145,450,145.7z M436.7,145.5
			l0.6-0.1c3.3-0.8,5.9-2.7,7.6-5.6c1.8-2.9,2.2-6.1,1.4-9.4c-0.8-3.3-2.7-5.9-5.6-7.6c-2.9-1.8-6.1-2.2-9.4-1.4l-0.6,0.1
			L436.7,145.5z"/>
		<path fill="#F2F2F2" d="M484.5,132.3l10.2-18.1l6.9-12.2l3.4,52.5l-7.6,0.5l-1.7-26.8l-10.2,18.1L473,129.6l1.7,26.8l-7.6,0.5
			l-3.4-52.5l8.4,11.2L484.5,132.3z"/>
		<path fill="#F2F2F2" d="M516.5,105.2l23.2,2.4l-0.8,7.6l-15.5-1.6l-1.9,18.5l15.5,1.6l-0.8,7.6l-15.5-1.6l-0.9,8.7l15.5,1.6
			l-0.8,7.6l-23.2-2.4L516.5,105.2z"/>
		<path fill="#F2F2F2" d="M564.4,149.3l3.2,16.4l-7.9-2.1l-2.3-12.6c-1.9,0.1-3.8-0.2-5.8-0.7l-0.6-0.1l-2.7,10.4l-7.4-1.9l12.7-49
			l8,2.1c5.3,1.4,9.4,4.5,12.2,9.2c2.8,4.8,3.5,9.8,2.1,15.1c-1.4,5.3-4.5,9.4-9.2,12.2C565.9,148.7,565.1,149,564.4,149.3z
			 M552.8,142.8l0.6,0.1c3.3,0.9,6.4,0.4,9.4-1.3c2.9-1.7,4.8-4.2,5.7-7.6c0.9-3.3,0.4-6.4-1.3-9.4c-1.7-2.9-4.2-4.8-7.6-5.7
			l-0.6-0.1L552.8,142.8z"/>
		<path fill="#F2F2F2" d="M584.3,172.4c-2-0.9-3.7-1.9-5-3.1c-1.3-1.2-2.6-2.8-3.8-4.9l3.8-8.6c0.6,1.6,1.1,2.8,1.5,3.4
			c0.4,0.7,0.9,1.4,1.6,2.2c0.6,0.8,1.4,1.6,2.3,2.4c0.9,0.8,1.8,1.4,2.8,1.8c2.1,0.9,4.1,0.9,6,0.1c2-0.8,3.4-2.3,4.2-4.2
			c0.7-1.6,0.7-3.2,0-4.7c-0.7-1.5-2-3.5-4-5.9c-1.2-1.5-2.2-2.8-3-3.9c-0.8-1.1-1.5-2.4-2-3.8c-0.6-1.4-0.9-2.9-0.9-4.5
			c0-1.6,0.4-3.3,1.1-5.1c0.9-1.7,2-3.2,3.4-4.3c1.4-1.2,3.1-2,4.9-2.6c1.8-0.6,3.7-0.8,5.7-0.7c2,0.1,3.9,0.6,5.7,1.4
			c1.4,0.7,2.6,1.4,3.6,2.3c1,0.8,2,2,3.1,3.6l-3.2,7.2c-0.6-1-1.1-1.6-1.3-1.9c-0.3-0.3-0.6-0.7-1.1-1.3c-0.5-0.6-1-1.2-1.7-1.7
			s-1.5-1.1-2.3-1.4c-2-0.8-3.9-0.9-5.8-0.3c-1.9,0.6-3.2,1.7-3.9,3.3c-0.6,1.5-0.6,3,0.1,4.4s2,3.2,4,5.4c1.3,1.5,2.4,2.8,3.2,3.9
			c0.8,1.1,1.5,2.3,2.1,3.7c0.6,1.4,0.9,3,0.9,4.7s-0.4,3.6-1.3,5.6c-0.8,1.8-2,3.4-3.5,4.7c-1.5,1.3-3.2,2.3-5.2,3s-4,1-6.1,0.9
			C588.2,173.8,586.2,173.3,584.3,172.4z"/>
		<path fill="#F2F2F2" d="M636.7,136.3l6.1,3.6l-0.5,0.9L627.5,152l-3.5-2.1l0.5-0.9L636.7,136.3z"/>
		<path fill="#F2F2F2" d="M692.5,186.9l4.6,4.5l-35.2,36.3l-5.5-5.4l17-17.5l-22.3,10.5l10.1-22.8L644,210.2l-5.5-5.3l35.1-36.2
			l4.6,4.5l-11.7,26.4L692.5,186.9z"/>
		<path fill="#F2F2F2" d="M677.9,237l-7.3,1.7L666,232l55-13.3L689,265.4l-4.7-6.7l4.2-6.2L677.9,237z M685.9,235l7.3,10.6
			l10.1-14.9L685.9,235z"/>
		<path fill="#F2F2F2" d="M713.6,283.5l-10.8,12.7l-3.3-7.5l8.5-9.7c-1.2-1.4-2.3-3.1-3.1-5l-0.2-0.5l-9.8,4.4l-3.1-7l46.3-20.5
			l3.3,7.5c2.2,5,2.4,10.1,0.4,15.3s-5.5,8.8-10.5,11c-5,2.2-10.1,2.4-15.3,0.4C715.1,284.2,714.3,283.9,713.6,283.5z M711.5,270.4
			l0.2,0.5c1.4,3.1,3.7,5.3,6.9,6.5c3.2,1.2,6.3,1.2,9.5-0.2c3.1-1.4,5.3-3.7,6.5-6.9c1.2-3.2,1.2-6.3-0.2-9.5l-0.2-0.5L711.5,270.4
			z"/>
		<path fill="#F2F2F2" d="M761.6,319.8l-21.8-6.2l-27.2,17.9l-2-7.9l19.5-12.8l-12.4-3.6l-10.6,2.7l-1.8-7.5L754,290l1.9,7.5
			l-23.6,6l27.1,7.7L761.6,319.8z"/>
		<path fill="#F2F2F2" d="M763.7,333.8l2.2,23.2l-7.6,0.7l-1.5-15.5l-18.5,1.8l1.5,15.5l-7.6,0.7l-1.5-15.5l-8.7,0.8l1.5,15.5
			l-7.6,0.7l-2.2-23.2L763.7,333.8z"/>
		<path fill="#F2F2F2" d="M766.8,371.3l-2,32.7l-7.9-0.5l0.8-12.6l-42.3-2.6l0.5-7.6l42.3,2.6l0.8-12.6L766.8,371.3z"/>
	</g>
</g>
</svg>
