<?xml version="1.0" encoding="utf-8"?>
<!-- Generator: Adobe Illustrator 18.0.0, SVG Export Plug-In . SVG Version: 6.00 Build 0)  -->
<!DOCTYPE svg PUBLIC "-//W3C//DTD SVG 1.1//EN" "http://www.w3.org/Graphics/SVG/1.1/DTD/svg11.dtd">
<svg version="1.1" id="Capa_1" xmlns="http://www.w3.org/2000/svg" xmlns:xlink="http://www.w3.org/1999/xlink" x="0px" y="0px"
	 viewBox="0 0 56.5 56.5" enable-background="new 0 0 56.5 56.5" xml:space="preserve">
<g>
	<path fill="#B2C965" d="M15.1,25.8c-1.1,0-1.9,0.3-1.9,0.3L13,27.5c0,0,0.7-0.3,1.7-0.3c0.6,0,1,0.1,1,0.5c0,0.3-0.1,0.4-0.1,0.4
		s-0.5,0-0.7,0c-1.3,0-2.7,0.6-2.7,2.3c0,1.4,0.9,1.7,1.5,1.7c1.1,0,1.6-0.7,1.6-0.7l-0.1,0.6h1.4l0.6-4.2
		C17.2,25.9,15.6,25.8,15.1,25.8z M14.3,30.8c-0.5,0-0.6-0.4-0.6-0.6c0-0.4,0.2-0.9,1.4-0.9c0.3,0,0.3,0,0.3,0
		C15.4,29.5,15.2,30.8,14.3,30.8z M19.1,27.7c0,0.8,1.8,0.4,1.8,2.3c0,2.1-2,2-2.3,2c-1.3,0-1.7-0.2-1.7-0.2l0.2-1.4
		c0,0,0.6,0.2,1.4,0.2c0.4,0,1,0,1-0.5c0-0.7-1.9-0.6-1.9-2.3c0-1.6,1.2-2,2.3-2c0.9,0,1.4,0.1,1.4,0.1L21,27.3c0,0-0.8-0.1-1.1-0.1
		C19.4,27.2,19.1,27.4,19.1,27.7z M22.8,30.1c0,0.2,0,0.5,0.6,0.5c0.1,0,0.3,0,0.4,0l-0.2,1.3c-0.2,0-0.6,0.2-1.2,0.2
		c-0.7,0-1.2-0.4-1.2-1.3c0-0.6,0.9-5.7,0.9-5.7h1.5L23.5,26h0.8L24,27.4h-0.8L22.8,30.1z M28.7,29.5c0,0,0.2-1,0.2-1.4
		c0-1-0.5-2.3-2.2-2.3c-1.6,0-2.7,1.7-2.7,3.6c0,2.2,1.4,2.7,2.7,2.7c1.1,0,1.6-0.3,1.6-0.3l0.3-1.5c0,0-0.9,0.4-1.6,0.4
		c-1.7,0-1.4-1.2-1.4-1.2S28.7,29.5,28.7,29.5z M26.7,27.2c0.9,0,0.7,1,0.7,1.1h-1.7C25.7,28.1,25.9,27.2,26.7,27.2z M12.7,24.6
		l-1.2,7.4H9.9l0.9-5.5l-2,5.5H7.8l-0.1-5.5l-0.9,5.5H5.2l1.2-7.4h2.3l0.1,4.5l1.5-4.5H12.7z M32.3,23.6h-8c0.1-0.1,0.4-0.8,0.8-1.6
		h6.6C31.9,22.6,32.1,23.1,32.3,23.6z M30.8,20.5h-4.9c0.3-0.5,0.7-1.1,1-1.6h2.8C30.1,19.5,30.5,20,30.8,20.5z M28.2,39
		c-0.5-0.5-1-1-1.5-1.6h3C29.3,38,28.8,38.5,28.2,39L28.2,39C28.3,39,28.3,39,28.2,39C28.3,39,28.2,39,28.2,39z M30.8,35.9h-5.1
		c-0.3-0.5-0.6-1-0.9-1.6h6.8C31.4,34.9,31.1,35.4,30.8,35.9z M32.7,25.9c-0.2,0.4-0.4,0.8-0.6,1.8c-1.1-0.4-1.2,1.7-1.6,4.2h-1.6
		l1-6h1.4l-0.1,0.9c0,0,0.5-0.9,1.2-0.9C32.6,25.9,32.7,25.9,32.7,25.9z M35.5,30.5c0.5,0,1.3-0.4,1.3-0.4l-0.3,1.7
		c0,0-0.8,0.2-1.3,0.2c-1.8,0-2.8-1.3-2.8-3.2c0-2.9,1.7-4.4,3.5-4.4c0.8,0,1.7,0.4,1.7,0.4l-0.3,1.6c0,0-0.6-0.4-1.4-0.4
		c-1,0-2,1-2,2.8C34,29.7,34.4,30.5,35.5,30.5z M50.6,31.1c-0.1,0-0.1,0.1-0.2,0.2c0,0.1-0.1,0.2-0.1,0.2s0,0.2,0.1,0.2
		c0,0.1,0.1,0.1,0.2,0.2c0.1,0,0.2,0.1,0.2,0.1c0.1,0,0.2,0,0.2-0.1c0.1,0,0.1-0.1,0.2-0.2c0-0.1,0.1-0.2,0.1-0.2
		c0-0.1,0-0.2-0.1-0.2c0-0.1-0.1-0.1-0.2-0.2C51,31,50.9,31,50.8,31C50.7,31,50.7,31,50.6,31.1z M51.1,31.3c0,0.1,0.1,0.1,0.1,0.2
		s0,0.1-0.1,0.2c0,0.1-0.1,0.1-0.1,0.1c-0.1,0-0.1,0.1-0.2,0.1c-0.1,0-0.1,0-0.2-0.1c-0.1,0-0.1-0.1-0.1-0.1s-0.1-0.1-0.1-0.2
		s0-0.1,0.1-0.2c0-0.1,0.1-0.1,0.1-0.1s0.1,0,0.2,0s0.1,0,0.2,0C51.1,31.2,51.1,31.2,51.1,31.3z M44.9,29.5c0,1.3,0.6,2.5,1.9,2.5
		c0.9,0,1.4-0.6,1.4-0.6l-0.1,0.6h1.5l1.2-7.3l-1.5,0L49,26.7c0,0-0.6-0.8-1.5-0.8C46.1,25.9,44.9,27.6,44.9,29.5z M48.6,28.6
		c0,0.8-0.4,1.9-1.2,1.9c-0.6,0-0.8-0.5-0.8-1.2c0-1.2,0.5-2,1.2-2C48.3,27.3,48.6,27.7,48.6,28.6z M51.1,36.3
		C51.1,36.3,51.1,36.3,51.1,36.3C51.1,36.3,51.1,36.3,51.1,36.3c0.1-0.1,0.1-0.1,0.1-0.2c0,0,0-0.1,0-0.1s0,0-0.1,0c0,0-0.1,0-0.1,0
		h-0.2v0.5l0,0h0.1v-0.2h0C51,36.3,51,36.3,51.1,36.3c-0.1,0,0,0.1,0,0.1l0,0.1h0.1l-0.1-0.1C51.1,36.4,51.1,36.4,51.1,36.3z
		 M51,36.3L51,36.3l-0.1-0.2H51c0,0,0.1,0,0.1,0c0,0,0,0,0,0c0,0,0,0,0,0C51.1,36.2,51.1,36.2,51,36.3C51.1,36.3,51,36.3,51,36.3z
		 M55,9.9H1.5C0.6,9.9,0,10.6,0,11.4v33.7c0,0.8,0.6,1.5,1.5,1.5H55c0.8,0,1.5-0.7,1.5-1.5V11.4C56.5,10.6,55.8,9.9,55,9.9z
		 M51.4,36.5c0,0.1-0.1,0.1-0.2,0.2s-0.2,0.1-0.2,0.1c-0.1,0-0.2,0-0.2-0.1c-0.1,0-0.1-0.1-0.2-0.2c0-0.1-0.1-0.2-0.1-0.2
		s0-0.2,0.1-0.2c0-0.1,0.1-0.1,0.2-0.2c0.1,0,0.2-0.1,0.2-0.1c0.1,0,0.2,0,0.2,0.1c0.1,0,0.1,0.1,0.2,0.2c0,0.1,0.1,0.2,0.1,0.2
		S51.5,36.4,51.4,36.5z M52.5,28.2c0,8-6.5,14.5-14.5,14.5c-3.7,0-7.2-1.4-9.7-3.7c-2.6,2.3-6,3.7-9.7,3.7c-8,0-14.5-6.5-14.5-14.5
		c0-8,6.4-14.4,14.4-14.5c0,0,0.1,0,0.1,0c3.7,0,7.1,1.4,9.7,3.7c2.6-2.3,6-3.7,9.7-3.7C46,13.7,52.5,20.2,52.5,28.2
		C52.5,28.2,52.5,28.2,52.5,28.2z M50.6,31.2v0.5h0.1v-0.2h0c0,0,0.1,0,0.1,0c0,0,0,0.1,0.1,0.1l0,0.1H51L51,31.6
		c0,0-0.1-0.1-0.1-0.1c0,0,0,0,0,0c0,0,0.1,0,0.1,0c0,0,0-0.1,0-0.1c0,0,0-0.1,0-0.1c0,0,0,0-0.1,0s-0.1,0-0.1,0H50.6L50.6,31.2z
		 M50.9,31.3C50.9,31.4,50.9,31.4,50.9,31.3C50.9,31.4,50.9,31.4,50.9,31.3c0,0.1-0.1,0.1-0.1,0.1h-0.1v-0.2h0.1
		C50.8,31.3,50.8,31.3,50.9,31.3C50.9,31.3,50.9,31.3,50.9,31.3z M40.1,25.8c-1.1,0-1.9,0.3-1.9,0.3L38,27.5c0,0,0.7-0.3,1.7-0.3
		c0.6,0,1,0.1,1,0.5c0,0.3-0.1,0.4-0.1,0.4s-0.5,0-0.7,0c-1.3,0-2.7,0.6-2.7,2.3c0,1.4,0.9,1.7,1.5,1.7c1.1,0,1.6-0.7,1.6-0.7
		l-0.1,0.6h1.4l0.6-4.2C42.2,25.9,40.6,25.8,40.1,25.8z M39.3,30.8c-0.5,0-0.6-0.4-0.6-0.6c0-0.4,0.2-0.9,1.4-0.9c0.3,0,0.3,0,0.3,0
		C40.4,29.5,40.2,30.8,39.3,30.8z M45,27.7c-1.1-0.4-1.2,1.7-1.6,4.2h-1.6l1-6h1.4l-0.1,0.9c0,0,0.5-0.9,1.2-0.9c0.2,0,0.3,0,0.3,0
		C45.4,26.3,45.2,26.7,45,27.7z"/>
</g>
</svg>
