<?xml version="1.0" encoding="utf-8"?>
<!-- Generator: Adobe Illustrator 18.0.0, SVG Export Plug-In . SVG Version: 6.00 Build 0)  -->
<!DOCTYPE svg PUBLIC "-//W3C//DTD SVG 1.1//EN" "http://www.w3.org/Graphics/SVG/1.1/DTD/svg11.dtd">
<svg version="1.1" id="Capa_1" xmlns="http://www.w3.org/2000/svg" xmlns:xlink="http://www.w3.org/1999/xlink" x="0px" y="0px"
	 viewBox="0 0 56.5 56.5" enable-background="new 0 0 56.5 56.5" xml:space="preserve">
<g>
	<path fill="#B2C965" d="M33.4,24.9c0.2,0.1,0.3,0.4,0.3,0.7c0,0.5-0.2,0.8-0.5,1.1c-0.4,0.3-0.8,0.4-1.5,0.4h-0.3
		c-0.3,0-0.4-0.2-0.4-0.4l0.4-1.5c0.1-0.2,0.3-0.4,0.6-0.4l0.4,0C32.8,24.7,33.1,24.7,33.4,24.9z M17.5,28.5c-0.3,0-0.6,0.1-0.8,0.2
		L16.2,29c-0.1,0.1-0.2,0.3-0.2,0.6l0.2,0.4c0.2,0.1,0.4,0.1,0.7,0.1c0.2,0,0.4,0,0.6-0.1l0.5-0.2l0.2-0.2c0.1-0.3,0.2-0.9,0.2-1
		l-0.1-0.1C18.3,28.4,17.8,28.4,17.5,28.5z M38.8,28.5c-0.3,0-0.6,0.1-0.8,0.2c-0.2,0.1-0.4,0.2-0.5,0.3c-0.1,0.1-0.2,0.3-0.2,0.6
		l0.2,0.4c0.1,0.1,0.4,0.1,0.7,0.1c0.2,0,0.4,0,0.6-0.1l0.5-0.2l0.2-0.2c0.1-0.3,0.2-0.9,0.2-1l-0.1-0.1
		C39.6,28.4,39,28.4,38.8,28.5z M11.1,24.6l-0.4,0c-0.3,0-0.5,0.2-0.6,0.4l-0.4,1.5C9.8,26.8,9.9,27,10.2,27h0.3
		c0.6,0,1.1-0.1,1.5-0.4c0.4-0.3,0.5-0.6,0.5-1.1c0-0.3-0.1-0.5-0.3-0.7C11.9,24.7,11.6,24.6,11.1,24.6z M56.5,11.4v33.7
		c0,0.8-0.7,1.5-1.5,1.5H1.5c-0.8,0-1.5-0.7-1.5-1.5V11.4c0-0.8,0.6-1.5,1.5-1.5H55C55.8,9.9,56.5,10.6,56.5,11.4z M14.7,25.4
		c0-0.4-0.1-0.8-0.2-1.1c-0.1-0.3-0.4-0.5-0.6-0.7c-0.3-0.2-0.6-0.3-1-0.4c-0.4-0.1-0.9-0.1-1.4-0.1l-2.4,0c-0.3,0-0.5,0.2-0.6,0.4
		l-1.6,7.2c-0.1,0.2,0.1,0.4,0.4,0.4h1.2c0.3,0,0.5-0.2,0.6-0.4L9.3,29c0.1-0.2,0.3-0.4,0.6-0.4h0.3c1.4,0,2.5-0.3,3.3-0.9
		C14.3,27.1,14.7,26.3,14.7,25.4z M20.8,26.5c0-0.5-0.2-0.9-0.7-1.2C19.7,25.1,19,25,18,25c-0.5,0-0.9,0-1.4,0.1
		c-0.4,0.1-0.4,0.1-0.6,0.1c-0.4,0.1-0.5,0.5-0.5,0.5l-0.1,0.6c-0.1,0.4,0.1,0.4,0.2,0.3c0.2-0.1,0.3-0.1,0.7-0.2
		c0.4-0.1,0.8-0.2,1.1-0.1c0.5,0,0.8,0,1.1,0.1c0.2,0.1,0.4,0.3,0.4,0.5l0,0.2l-0.2,0.1c-0.7,0-1.1,0.1-1.7,0.2
		c-0.6,0.1-1.1,0.2-1.5,0.4c-0.4,0.2-0.8,0.5-1,0.8C14.1,29,14,29.4,14,29.9c0,0.5,0.2,0.8,0.5,1.1c0.3,0.3,0.7,0.4,1.2,0.4
		c0.3,0,0.6,0,0.7-0.1l0.6-0.2l0.5-0.3l0.4-0.3l0,0l0,0.2l0,0v0c0,0.2,0.1,0.4,0.3,0.4l0,0h0h0.9h0.2l0,0c0.2,0,0.5-0.2,0.5-0.4
		l0.9-3.7l0-0.3L20.8,26.5z M23.4,33.6l4.7-7.9c0,0,0.4-0.7,0-0.7c-0.3,0-1.4,0-1.4,0c-0.3,0-0.6,0.2-0.7,0.4c0,0-1.7,2.9-1.8,3.2
		l-0.2,0l-0.5-3.1c-0.1-0.2-0.3-0.5-0.6-0.5l-1,0c-0.3,0-0.4,0.2-0.4,0.4c0,0,0.8,4.5,1,5.6c0.1,0.6,0,0.7,0,0.7l-1,1.8
		c-0.2,0.2-0.1,0.4,0.2,0.4l1.2,0C22.9,34.1,23.2,33.9,23.4,33.6z M35.9,25.4c0-0.4-0.1-0.8-0.2-1.1c-0.1-0.3-0.4-0.5-0.6-0.7
		c-0.3-0.2-0.6-0.3-1-0.4c-0.4-0.1-0.8-0.1-1.4-0.1l-2.4,0c-0.3,0-0.5,0.2-0.6,0.4L28,30.8c-0.1,0.2,0.1,0.4,0.4,0.4l1.2,0
		c0.2,0,0.5-0.2,0.6-0.4l0.4-1.7c0.1-0.2,0.3-0.4,0.6-0.4h0.3c1.4,0,2.5-0.3,3.3-0.9C35.5,27.1,35.9,26.4,35.9,25.4z M42,26.5
		c0-0.5-0.2-0.9-0.7-1.2c-0.4-0.2-1.1-0.4-2.1-0.4c-0.5,0-0.9,0-1.4,0.1c-0.3,0.1-0.4,0.1-0.6,0.1c-0.4,0.1-0.5,0.5-0.5,0.5
		l-0.1,0.6c-0.1,0.4,0.1,0.4,0.2,0.3c0.2-0.1,0.3-0.1,0.7-0.2c0.4-0.1,0.8-0.1,1.1-0.1c0.5,0,0.8,0,1.1,0.2c0.2,0.1,0.4,0.3,0.4,0.5
		l0,0.2l-0.2,0.1c-0.7,0-1.2,0.1-1.7,0.2c-0.6,0.1-1.1,0.2-1.5,0.4c-0.4,0.2-0.8,0.5-1,0.8c-0.2,0.3-0.3,0.7-0.3,1.2
		c0,0.5,0.2,0.8,0.5,1.1c0.3,0.3,0.7,0.4,1.2,0.4c0.3,0,0.6,0,0.7-0.1l0.6-0.2l0.5-0.3l0.4-0.3l0,0l0,0.2l0,0l0,0
		c-0.1,0.2,0.1,0.4,0.3,0.4l0,0h0l0,0c0.1,0,0.7,0,0.9,0h0.2l0,0c0.2,0,0.5-0.2,0.5-0.4l0.9-3.7l0-0.3L42,26.5z M45.7,23.7
		c0.1-0.2-0.1-0.4-0.4-0.4h-1c-0.2,0-0.4,0.2-0.5,0.4l-0.1,0.1l-0.1,0.2l-1.5,6.7l0,0.2l0,0c0,0.2,0.1,0.4,0.3,0.4l0,0h1.1
		c0.2,0,0.4-0.2,0.5-0.4l0.1-0.1L45.7,23.7L45.7,23.7z M47.8,22.7h-0.4v-0.3h-0.2v0.3h-0.1v0.2h0.1v0.6l0.1,0.3l0.3,0.1l0.1,0l0.1,0
		v-0.2h0l-0.1,0l-0.1,0l-0.1,0l-0.1-0.1l0-0.1l0-0.1v-0.5h0.4V22.7z M49.7,23.1l-0.1-0.3l-0.3-0.1l-0.2,0l-0.2,0.1l-0.1-0.1l-0.2,0
		l-0.2,0l-0.2,0.1v-0.1h-0.2v1.1h0.2V23l0.2-0.1l0.2,0l0.1,0l0.1,0.1l0,0.1l0,0.1v0.6H49v-0.7l0-0.1l0-0.1l0.2-0.1l0.2,0l0.1,0
		l0.1,0.1l0,0.1l0,0.1v0.6h0.2L49.7,23.1L49.7,23.1z"/>
</g>
</svg>
