<?xml version="1.0" encoding="utf-8"?>
<!-- Generator: Adobe Illustrator 18.0.0, SVG Export Plug-In . SVG Version: 6.00 Build 0)  -->
<!DOCTYPE svg PUBLIC "-//W3C//DTD SVG 1.1//EN" "http://www.w3.org/Graphics/SVG/1.1/DTD/svg11.dtd">
<svg version="1.1" id="Capa_1" xmlns="http://www.w3.org/2000/svg" xmlns:xlink="http://www.w3.org/1999/xlink" x="0px" y="0px"
	 viewBox="0 0 533.3 533.3" enable-background="new 0 0 533.3 533.3" xml:space="preserve">
<g>
	<path fill="#B2C965" d="M266.7,0C119.4,0,0,119.4,0,266.7c0,147.3,119.4,266.7,266.7,266.7c147.3,0,266.7-119.4,266.7-266.7
		C533.3,119.4,413.9,0,266.7,0z M292.5,356.3c-24.2-1.9-34.4-13.9-53.4-25.4c-10.4,54.8-23.2,107.3-61,134.7
		c-11.7-82.8,17.1-145,30.5-211c-22.8-38.4,2.7-115.6,50.8-96.6c59.2,23.4-51.2,142.7,22.9,157.6c77.4,15.6,109-134.3,61-183
		C274,62.2,141.5,131,157.8,231.7c4,24.6,29.4,32.1,10.2,66.1c-44.4-9.8-57.6-44.8-55.9-91.5c2.7-76.4,68.6-129.9,134.7-137.3
		c83.6-9.4,162,30.7,172.9,109.3C431.8,267.1,381.9,363.2,292.5,356.3z"/>
</g>
</svg>
