<?xml version="1.0" encoding="utf-8"?>
<!-- Generator: Adobe Illustrator 18.0.0, SVG Export Plug-In . SVG Version: 6.00 Build 0)  -->
<!DOCTYPE svg PUBLIC "-//W3C//DTD SVG 1.1//EN" "http://www.w3.org/Graphics/SVG/1.1/DTD/svg11.dtd">
<svg version="1.1" id="Capa_1" xmlns="http://www.w3.org/2000/svg" xmlns:xlink="http://www.w3.org/1999/xlink" x="0px" y="0px"
	 viewBox="0 0 49.7 49.7" enable-background="new 0 0 49.7 49.7" xml:space="preserve">
<g>
	<g>
		<path fill="#B2C965" d="M24.8,0C11.1,0,0,11.1,0,24.8c0,13.7,11.1,24.8,24.8,24.8c13.7,0,24.8-11.1,24.8-24.8
			C49.7,11.1,38.5,0,24.8,0z M33.2,36.7c-1.2,0.5-2.2,0.9-3.1,1.1c-0.9,0.2-1.9,0.3-3,0.3c-1.2,0-2-0.2-2.9-0.5
			c-0.9-0.3-1.8-0.8-2.4-1.3c-0.7-0.6-1.1-1.2-1.4-1.8c-0.3-0.7-0.4-1.6-0.4-2.8v-9.5h-3.7v-3.8c1.1-0.3,2.3-0.8,3-1.5
			c0.8-0.6,1.4-1.4,1.8-2.3c0.5-0.9,0.8-2,0.9-3.4h3.8v6.2h6.2v4.8h-6.2v6.9c0,1.6,0,2.5,0.1,2.9c0.2,0.4,0.6,0.9,1,1.2
			c0.6,0.4,1.3,0.5,2,0.5c1.4,0,2.7-0.4,4.1-1.3L33.2,36.7L33.2,36.7L33.2,36.7z"/>
	</g>
</g>
</svg>
