<?xml version="1.0" encoding="utf-8"?>
<!-- Generator: Adobe Illustrator 18.0.0, SVG Export Plug-In . SVG Version: 6.00 Build 0)  -->
<!DOCTYPE svg PUBLIC "-//W3C//DTD SVG 1.1//EN" "http://www.w3.org/Graphics/SVG/1.1/DTD/svg11.dtd">
<svg version="1.1" id="Capa_1" xmlns="http://www.w3.org/2000/svg" xmlns:xlink="http://www.w3.org/1999/xlink" x="0px" y="0px"
	 viewBox="0 0 56.5 56.5" enable-background="new 0 0 56.5 56.5" xml:space="preserve">
<g>
	<g>
		<path fill="#B2C965" d="M55,9.9H1.5C0.6,9.9,0,10.6,0,11.4v33.7c0,0.8,0.6,1.5,1.5,1.5H55c0.8,0,1.5-0.7,1.5-1.5V11.4
			C56.5,10.6,55.8,9.9,55,9.9z M4.4,21h6c0.8,0,1.5,0.3,1.7,1.2l1.3,6.3c-1.3-3.3-4.4-6-9.1-7.2L4.4,21z M11.7,35.4L8.2,23.5
			c2.5,1.6,4.6,4.1,5.4,5.9l0.4,1.5l3.8-9.7h4.1l-6.1,14.2L11.7,35.4z M24.9,35.4H21l2.4-14.3h3.9L24.9,35.4z M31.7,35.6
			c-1.7,0-3.4-0.4-4.3-0.8l0.5-3.2l0.5,0.2c1.3,0.5,2.1,0.7,3.7,0.7c1.1,0,2.3-0.4,2.3-1.4c0-0.6-0.5-1.1-2-1.8
			c-1.5-0.7-3.4-1.8-3.4-3.9c0-2.8,2.7-4.7,6.6-4.7c1.5,0,2.7,0.3,3.5,0.6l-0.5,3.1l-0.4-0.2c-0.7-0.3-1.6-0.6-2.9-0.5
			c-1.5,0-2.2,0.6-2.2,1.2c0,0.7,0.8,1.1,2.2,1.8c2.2,1,3.3,2.3,3.3,3.9C38.4,33.7,35.8,35.6,31.7,35.6z M48.5,35.4
			c0,0-0.4-1.6-0.5-2.1c-0.6,0-4.5,0-5,0c-0.2,0.4-0.8,2.1-0.8,2.1h-4.1L44,22.3c0.4-0.9,1.1-1.2,2-1.2h3l3.1,14.3L48.5,35.4
			L48.5,35.4z"/>
		<path fill="#B2C965" d="M46.3,25c-0.2,0.5-0.5,1.4-0.5,1.4c0,0-1.2,3.2-1.5,4h3.2c-0.2-0.7-0.9-4.1-0.9-4.1L46.3,25z"/>
	</g>
</g>
</svg>
